<?xml version="1.0" encoding="utf-8" standalone="no"?>
<!DOCTYPE svg PUBLIC "-//W3C//DTD SVG 1.1//EN"
  "http://www.w3.org/Graphics/SVG/1.1/DTD/svg11.dtd">
<svg xmlns:xlink="http://www.w3.org/1999/xlink" width="739.8pt" height="236.16pt" viewBox="0 0 739.8 236.16" xmlns="http://www.w3.org/2000/svg" version="1.1">
 <metadata>
  <rdf:RDF xmlns:dc="http://purl.org/dc/elements/1.1/" xmlns:cc="http://creativecommons.org/ns#" xmlns:rdf="http://www.w3.org/1999/02/22-rdf-syntax-ns#">
   <cc:Work>
    <dc:type rdf:resource="http://purl.org/dc/dcmitype/StillImage"/>
    <dc:date>2026-03-07T00:39:08.192145</dc:date>
    <dc:format>image/svg+xml</dc:format>
    <dc:creator>
     <cc:Agent>
      <dc:title>Matplotlib v3.10.8, https://matplotlib.org/</dc:title>
     </cc:Agent>
    </dc:creator>
   </cc:Work>
  </rdf:RDF>
 </metadata>
 <defs>
  <style type="text/css">*{stroke-linejoin: round; stroke-linecap: butt}</style>
 </defs>
 <g id="figure_1">
  <g id="patch_1">
   <path d="M 0 236.16 
L 739.8 236.16 
L 739.8 0 
L 0 0 
z
" style="fill: #ffffff"/>
  </g>
  <g id="axes_1">
   <g id="patch_2">
    <path d="M 27.925714 141.3648 
C 33.697064 141.3648 39.232811 138.911367 43.313772 134.54484 
C 47.394733 130.178313 49.687714 124.255201 49.687714 118.08 
C 49.687714 111.904799 47.394733 105.981687 43.313772 101.61516 
C 39.232811 97.248633 33.697064 94.7952 27.925714 94.7952 
C 22.154364 94.7952 16.618617 97.248633 12.537657 101.61516 
C 8.456696 105.981687 6.163714 111.904799 6.163714 118.08 
C 6.163714 124.255201 8.456696 130.178313 12.537657 134.54484 
C 16.618617 138.911367 22.154364 141.3648 27.925714 141.3648 
L 27.925714 141.3648 
z
" clip-path="url(#p822de90f9b)" style="fill: none; stroke: #000000; stroke-width: 2; stroke-linejoin: miter"/>
   </g>
   <g id="patch_3">
    <path d="M 110.828571 141.3648 
C 116.599921 141.3648 122.135669 138.911367 126.216629 134.54484 
C 130.29759 130.178313 132.590571 124.255201 132.590571 118.08 
C 132.590571 111.904799 130.29759 105.981687 126.216629 101.61516 
C 122.135669 97.248633 116.599921 94.7952 110.828571 94.7952 
C 105.057222 94.7952 99.521474 97.248633 95.440514 101.61516 
C 91.359553 105.981687 89.066571 111.904799 89.066571 118.08 
C 89.066571 124.255201 91.359553 130.178313 95.440514 134.54484 
C 99.521474 138.911367 105.057222 141.3648 110.828571 141.3648 
L 110.828571 141.3648 
z
" clip-path="url(#p822de90f9b)" style="fill: none; stroke: #000000; stroke-width: 2; stroke-linejoin: miter"/>
   </g>
   <g id="patch_4">
    <path d="M 193.731429 141.3648 
C 199.502778 141.3648 205.038526 138.911367 209.119486 134.54484 
C 213.200447 130.178313 215.493429 124.255201 215.493429 118.08 
C 215.493429 111.904799 213.200447 105.981687 209.119486 101.61516 
C 205.038526 97.248633 199.502778 94.7952 193.731429 94.7952 
C 187.960079 94.7952 182.424331 97.248633 178.343371 101.61516 
C 174.26241 105.981687 171.969429 111.904799 171.969429 118.08 
C 171.969429 124.255201 174.26241 130.178313 178.343371 134.54484 
C 182.424331 138.911367 187.960079 141.3648 193.731429 141.3648 
L 193.731429 141.3648 
z
" clip-path="url(#p822de90f9b)" style="fill: none; stroke: #000000; stroke-width: 2; stroke-linejoin: miter"/>
   </g>
   <g id="patch_5">
    <path d="M 276.634286 141.3648 
C 282.405636 141.3648 287.941383 138.911367 292.022343 134.54484 
C 296.103304 130.178313 298.396286 124.255201 298.396286 118.08 
C 298.396286 111.904799 296.103304 105.981687 292.022343 101.61516 
C 287.941383 97.248633 282.405636 94.7952 276.634286 94.7952 
C 270.862936 94.7952 265.327189 97.248633 261.246228 101.61516 
C 257.165267 105.981687 254.872286 111.904799 254.872286 118.08 
C 254.872286 124.255201 257.165267 130.178313 261.246228 134.54484 
C 265.327189 138.911367 270.862936 141.3648 276.634286 141.3648 
L 276.634286 141.3648 
z
" clip-path="url(#p822de90f9b)" style="fill: none; stroke: #000000; stroke-width: 2; stroke-linejoin: miter"/>
   </g>
   <g id="patch_6">
    <path d="M 359.537143 141.3648 
C 365.308493 141.3648 370.84424 138.911367 374.925201 134.54484 
C 379.006161 130.178313 381.299143 124.255201 381.299143 118.08 
C 381.299143 111.904799 379.006161 105.981687 374.925201 101.61516 
C 370.84424 97.248633 365.308493 94.7952 359.537143 94.7952 
C 353.765793 94.7952 348.230046 97.248633 344.149085 101.61516 
C 340.068124 105.981687 337.775143 111.904799 337.775143 118.08 
C 337.775143 124.255201 340.068124 130.178313 344.149085 134.54484 
C 348.230046 138.911367 353.765793 141.3648 359.537143 141.3648 
L 359.537143 141.3648 
z
" clip-path="url(#p822de90f9b)" style="fill: none; stroke: #000000; stroke-width: 2; stroke-linejoin: miter"/>
   </g>
   <g id="patch_7">
    <path d="M 442.44 141.3648 
C 448.21135 141.3648 453.747097 138.911367 457.828058 134.54484 
C 461.909018 130.178313 464.202 124.255201 464.202 118.08 
C 464.202 111.904799 461.909018 105.981687 457.828058 101.61516 
C 453.747097 97.248633 448.21135 94.7952 442.44 94.7952 
C 436.66865 94.7952 431.132903 97.248633 427.051942 101.61516 
C 422.970982 105.981687 420.678 111.904799 420.678 118.08 
C 420.678 124.255201 422.970982 130.178313 427.051942 134.54484 
C 431.132903 138.911367 436.66865 141.3648 442.44 141.3648 
L 442.44 141.3648 
z
" clip-path="url(#p822de90f9b)" style="fill: none; stroke: #000000; stroke-width: 2; stroke-linejoin: miter"/>
   </g>
   <g id="patch_8">
    <path d="M 525.342857 141.3648 
C 531.114207 141.3648 536.649954 138.911367 540.730915 134.54484 
C 544.811876 130.178313 547.104857 124.255201 547.104857 118.08 
C 547.104857 111.904799 544.811876 105.981687 540.730915 101.61516 
C 536.649954 97.248633 531.114207 94.7952 525.342857 94.7952 
C 519.571507 94.7952 514.03576 97.248633 509.954799 101.61516 
C 505.873839 105.981687 503.580857 111.904799 503.580857 118.08 
C 503.580857 124.255201 505.873839 130.178313 509.954799 134.54484 
C 514.03576 138.911367 519.571507 141.3648 525.342857 141.3648 
L 525.342857 141.3648 
z
" clip-path="url(#p822de90f9b)" style="fill: none; stroke: #000000; stroke-width: 2; stroke-linejoin: miter"/>
   </g>
   <g id="patch_9">
    <path d="M 608.245714 141.3648 
C 614.017064 141.3648 619.552811 138.911367 623.633772 134.54484 
C 627.714733 130.178313 630.007714 124.255201 630.007714 118.08 
C 630.007714 111.904799 627.714733 105.981687 623.633772 101.61516 
C 619.552811 97.248633 614.017064 94.7952 608.245714 94.7952 
C 602.474364 94.7952 596.938617 97.248633 592.857657 101.61516 
C 588.776696 105.981687 586.483714 111.904799 586.483714 118.08 
C 586.483714 124.255201 588.776696 130.178313 592.857657 134.54484 
C 596.938617 138.911367 602.474364 141.3648 608.245714 141.3648 
L 608.245714 141.3648 
z
" clip-path="url(#p822de90f9b)" style="fill: none; stroke: #000000; stroke-width: 2; stroke-linejoin: miter"/>
   </g>
   <g id="patch_10">
    <path d="M 53.238941 118.08 
Q 69.373536 118.08 83.83108 118.08 
" clip-path="url(#p822de90f9b)" style="fill: none; stroke: #000000; stroke-width: 1.5; stroke-linecap: round"/>
    <path d="M 77.43108 114.88 
L 83.83108 118.08 
L 77.43108 121.28 
" clip-path="url(#p822de90f9b)" style="fill: none; stroke: #000000; stroke-width: 1.5; stroke-linecap: round"/>
   </g>
   <g id="patch_11">
    <path d="M 136.141798 118.08 
Q 152.276393 118.08 166.733937 118.08 
" clip-path="url(#p822de90f9b)" style="fill: none; stroke: #000000; stroke-width: 1.5; stroke-linecap: round"/>
    <path d="M 160.333937 114.88 
L 166.733937 118.08 
L 160.333937 121.28 
" clip-path="url(#p822de90f9b)" style="fill: none; stroke: #000000; stroke-width: 1.5; stroke-linecap: round"/>
   </g>
   <g id="patch_12">
    <path d="M 219.044655 118.08 
Q 235.17925 118.08 249.636794 118.08 
" clip-path="url(#p822de90f9b)" style="fill: none; stroke: #000000; stroke-width: 1.5; stroke-linecap: round"/>
    <path d="M 243.236794 114.88 
L 249.636794 118.08 
L 243.236794 121.28 
" clip-path="url(#p822de90f9b)" style="fill: none; stroke: #000000; stroke-width: 1.5; stroke-linecap: round"/>
   </g>
   <g id="patch_13">
    <path d="M 301.947512 118.08 
Q 318.082107 118.08 332.539652 118.08 
" clip-path="url(#p822de90f9b)" style="fill: none; stroke: #000000; stroke-width: 1.5; stroke-linecap: round"/>
    <path d="M 326.139652 114.88 
L 332.539652 118.08 
L 326.139652 121.28 
" clip-path="url(#p822de90f9b)" style="fill: none; stroke: #000000; stroke-width: 1.5; stroke-linecap: round"/>
   </g>
   <g id="patch_14">
    <path d="M 384.85037 118.08 
Q 400.984965 118.08 415.442509 118.08 
" clip-path="url(#p822de90f9b)" style="fill: none; stroke: #000000; stroke-width: 1.5; stroke-linecap: round"/>
    <path d="M 409.042509 114.88 
L 415.442509 118.08 
L 409.042509 121.28 
" clip-path="url(#p822de90f9b)" style="fill: none; stroke: #000000; stroke-width: 1.5; stroke-linecap: round"/>
   </g>
   <g id="patch_15">
    <path d="M 467.753227 118.08 
Q 483.887822 118.08 498.345366 118.08 
" clip-path="url(#p822de90f9b)" style="fill: none; stroke: #000000; stroke-width: 1.5; stroke-linecap: round"/>
    <path d="M 491.945366 114.88 
L 498.345366 118.08 
L 491.945366 121.28 
" clip-path="url(#p822de90f9b)" style="fill: none; stroke: #000000; stroke-width: 1.5; stroke-linecap: round"/>
   </g>
   <g id="patch_16">
    <path d="M 550.656084 118.08 
Q 566.790679 118.08 581.248223 118.08 
" clip-path="url(#p822de90f9b)" style="fill: none; stroke: #000000; stroke-width: 1.5; stroke-linecap: round"/>
    <path d="M 574.848223 114.88 
L 581.248223 118.08 
L 574.848223 121.28 
" clip-path="url(#p822de90f9b)" style="fill: none; stroke: #000000; stroke-width: 1.5; stroke-linecap: round"/>
   </g>
   <g id="patch_17">
    <path d="M 632.511227 141.401919 
Q 341.402069 344.035632 51.577576 142.296039 
" clip-path="url(#p822de90f9b)" style="fill: none; stroke: #000000; stroke-width: 1.4; stroke-linecap: round"/>
    <path d="M 55.002173 148.578725 
L 51.577576 142.296039 
L 58.658482 143.325973 
" clip-path="url(#p822de90f9b)" style="fill: none; stroke: #000000; stroke-width: 1.4; stroke-linecap: round"/>
   </g>
   <g id="text_1">
    <!-- Detection Content Lifecycle -->
    <g transform="translate(229.462031 39.816562) scale(0.18 -0.18)">
     <defs>
      <path id="DejaVuSans-Bold-44" d="M 1791 3756 
L 1791 909 
L 2222 909 
Q 2959 909 3348 1275 
Q 3738 1641 3738 2338 
Q 3738 3031 3350 3393 
Q 2963 3756 2222 3756 
L 1791 3756 
z
M 588 4666 
L 1856 4666 
Q 2919 4666 3439 4514 
Q 3959 4363 4331 4000 
Q 4659 3684 4818 3271 
Q 4978 2859 4978 2338 
Q 4978 1809 4818 1395 
Q 4659 981 4331 666 
Q 3956 303 3431 151 
Q 2906 0 1856 0 
L 588 0 
L 588 4666 
z
" transform="scale(0.015625)"/>
      <path id="DejaVuSans-Bold-65" d="M 4031 1759 
L 4031 1441 
L 1416 1441 
Q 1456 1047 1700 850 
Q 1944 653 2381 653 
Q 2734 653 3104 758 
Q 3475 863 3866 1075 
L 3866 213 
Q 3469 63 3072 -14 
Q 2675 -91 2278 -91 
Q 1328 -91 801 392 
Q 275 875 275 1747 
Q 275 2603 792 3093 
Q 1309 3584 2216 3584 
Q 3041 3584 3536 3087 
Q 4031 2591 4031 1759 
z
M 2881 2131 
Q 2881 2450 2695 2645 
Q 2509 2841 2209 2841 
Q 1884 2841 1681 2658 
Q 1478 2475 1428 2131 
L 2881 2131 
z
" transform="scale(0.015625)"/>
      <path id="DejaVuSans-Bold-74" d="M 1759 4494 
L 1759 3500 
L 2913 3500 
L 2913 2700 
L 1759 2700 
L 1759 1216 
Q 1759 972 1856 886 
Q 1953 800 2241 800 
L 2816 800 
L 2816 0 
L 1856 0 
Q 1194 0 917 276 
Q 641 553 641 1216 
L 641 2700 
L 84 2700 
L 84 3500 
L 641 3500 
L 641 4494 
L 1759 4494 
z
" transform="scale(0.015625)"/>
      <path id="DejaVuSans-Bold-63" d="M 3366 3391 
L 3366 2478 
Q 3138 2634 2908 2709 
Q 2678 2784 2431 2784 
Q 1963 2784 1702 2511 
Q 1441 2238 1441 1747 
Q 1441 1256 1702 982 
Q 1963 709 2431 709 
Q 2694 709 2930 787 
Q 3166 866 3366 1019 
L 3366 103 
Q 3103 6 2833 -42 
Q 2563 -91 2291 -91 
Q 1344 -91 809 395 
Q 275 881 275 1747 
Q 275 2613 809 3098 
Q 1344 3584 2291 3584 
Q 2566 3584 2833 3536 
Q 3100 3488 3366 3391 
z
" transform="scale(0.015625)"/>
      <path id="DejaVuSans-Bold-69" d="M 538 3500 
L 1656 3500 
L 1656 0 
L 538 0 
L 538 3500 
z
M 538 4863 
L 1656 4863 
L 1656 3950 
L 538 3950 
L 538 4863 
z
" transform="scale(0.015625)"/>
      <path id="DejaVuSans-Bold-6f" d="M 2203 2784 
Q 1831 2784 1636 2517 
Q 1441 2250 1441 1747 
Q 1441 1244 1636 976 
Q 1831 709 2203 709 
Q 2569 709 2762 976 
Q 2956 1244 2956 1747 
Q 2956 2250 2762 2517 
Q 2569 2784 2203 2784 
z
M 2203 3584 
Q 3106 3584 3614 3096 
Q 4122 2609 4122 1747 
Q 4122 884 3614 396 
Q 3106 -91 2203 -91 
Q 1297 -91 786 396 
Q 275 884 275 1747 
Q 275 2609 786 3096 
Q 1297 3584 2203 3584 
z
" transform="scale(0.015625)"/>
      <path id="DejaVuSans-Bold-6e" d="M 4056 2131 
L 4056 0 
L 2931 0 
L 2931 347 
L 2931 1631 
Q 2931 2084 2911 2256 
Q 2891 2428 2841 2509 
Q 2775 2619 2662 2680 
Q 2550 2741 2406 2741 
Q 2056 2741 1856 2470 
Q 1656 2200 1656 1722 
L 1656 0 
L 538 0 
L 538 3500 
L 1656 3500 
L 1656 2988 
Q 1909 3294 2193 3439 
Q 2478 3584 2822 3584 
Q 3428 3584 3742 3212 
Q 4056 2841 4056 2131 
z
" transform="scale(0.015625)"/>
      <path id="DejaVuSans-Bold-20" transform="scale(0.015625)"/>
      <path id="DejaVuSans-Bold-43" d="M 4288 256 
Q 3956 84 3597 -3 
Q 3238 -91 2847 -91 
Q 1681 -91 1000 561 
Q 319 1213 319 2328 
Q 319 3447 1000 4098 
Q 1681 4750 2847 4750 
Q 3238 4750 3597 4662 
Q 3956 4575 4288 4403 
L 4288 3438 
Q 3953 3666 3628 3772 
Q 3303 3878 2944 3878 
Q 2300 3878 1931 3465 
Q 1563 3053 1563 2328 
Q 1563 1606 1931 1193 
Q 2300 781 2944 781 
Q 3303 781 3628 887 
Q 3953 994 4288 1222 
L 4288 256 
z
" transform="scale(0.015625)"/>
      <path id="DejaVuSans-Bold-4c" d="M 588 4666 
L 1791 4666 
L 1791 909 
L 3903 909 
L 3903 0 
L 588 0 
L 588 4666 
z
" transform="scale(0.015625)"/>
      <path id="DejaVuSans-Bold-66" d="M 2841 4863 
L 2841 4128 
L 2222 4128 
Q 1984 4128 1890 4042 
Q 1797 3956 1797 3744 
L 1797 3500 
L 2753 3500 
L 2753 2700 
L 1797 2700 
L 1797 0 
L 678 0 
L 678 2700 
L 122 2700 
L 122 3500 
L 678 3500 
L 678 3744 
Q 678 4316 997 4589 
Q 1316 4863 1984 4863 
L 2841 4863 
z
" transform="scale(0.015625)"/>
      <path id="DejaVuSans-Bold-79" d="M 78 3500 
L 1197 3500 
L 2138 1125 
L 2938 3500 
L 4056 3500 
L 2584 -331 
Q 2363 -916 2067 -1148 
Q 1772 -1381 1288 -1381 
L 641 -1381 
L 641 -647 
L 991 -647 
Q 1275 -647 1404 -556 
Q 1534 -466 1606 -231 
L 1638 -134 
L 78 3500 
z
" transform="scale(0.015625)"/>
      <path id="DejaVuSans-Bold-6c" d="M 538 4863 
L 1656 4863 
L 1656 0 
L 538 0 
L 538 4863 
z
" transform="scale(0.015625)"/>
     </defs>
     <use xlink:href="#DejaVuSans-Bold-44"/>
     <use xlink:href="#DejaVuSans-Bold-65" transform="translate(83.007812 0)"/>
     <use xlink:href="#DejaVuSans-Bold-74" transform="translate(150.830078 0)"/>
     <use xlink:href="#DejaVuSans-Bold-65" transform="translate(198.632812 0)"/>
     <use xlink:href="#DejaVuSans-Bold-63" transform="translate(266.455078 0)"/>
     <use xlink:href="#DejaVuSans-Bold-74" transform="translate(325.732422 0)"/>
     <use xlink:href="#DejaVuSans-Bold-69" transform="translate(373.535156 0)"/>
     <use xlink:href="#DejaVuSans-Bold-6f" transform="translate(407.8125 0)"/>
     <use xlink:href="#DejaVuSans-Bold-6e" transform="translate(476.513672 0)"/>
     <use xlink:href="#DejaVuSans-Bold-20" transform="translate(547.705078 0)"/>
     <use xlink:href="#DejaVuSans-Bold-43" transform="translate(582.519531 0)"/>
     <use xlink:href="#DejaVuSans-Bold-6f" transform="translate(655.908203 0)"/>
     <use xlink:href="#DejaVuSans-Bold-6e" transform="translate(724.609375 0)"/>
     <use xlink:href="#DejaVuSans-Bold-74" transform="translate(795.800781 0)"/>
     <use xlink:href="#DejaVuSans-Bold-65" transform="translate(843.603516 0)"/>
     <use xlink:href="#DejaVuSans-Bold-6e" transform="translate(911.425781 0)"/>
     <use xlink:href="#DejaVuSans-Bold-74" transform="translate(982.617188 0)"/>
     <use xlink:href="#DejaVuSans-Bold-20" transform="translate(1030.419922 0)"/>
     <use xlink:href="#DejaVuSans-Bold-4c" transform="translate(1065.234375 0)"/>
     <use xlink:href="#DejaVuSans-Bold-69" transform="translate(1128.955078 0)"/>
     <use xlink:href="#DejaVuSans-Bold-66" transform="translate(1163.232422 0)"/>
     <use xlink:href="#DejaVuSans-Bold-65" transform="translate(1206.738281 0)"/>
     <use xlink:href="#DejaVuSans-Bold-63" transform="translate(1274.560547 0)"/>
     <use xlink:href="#DejaVuSans-Bold-79" transform="translate(1333.837891 0)"/>
     <use xlink:href="#DejaVuSans-Bold-63" transform="translate(1399.023438 0)"/>
     <use xlink:href="#DejaVuSans-Bold-6c" transform="translate(1458.300781 0)"/>
     <use xlink:href="#DejaVuSans-Bold-65" transform="translate(1492.578125 0)"/>
    </g>
   </g>
   <g id="text_2">
    <!-- Intake -->
    <g transform="translate(12.467121 120.839375) scale(0.1 -0.1)">
     <defs>
      <path id="DejaVuSans-49" d="M 628 4666 
L 1259 4666 
L 1259 0 
L 628 0 
L 628 4666 
z
" transform="scale(0.015625)"/>
      <path id="DejaVuSans-6e" d="M 3513 2113 
L 3513 0 
L 2938 0 
L 2938 2094 
Q 2938 2591 2744 2837 
Q 2550 3084 2163 3084 
Q 1697 3084 1428 2787 
Q 1159 2491 1159 1978 
L 1159 0 
L 581 0 
L 581 3500 
L 1159 3500 
L 1159 2956 
Q 1366 3272 1645 3428 
Q 1925 3584 2291 3584 
Q 2894 3584 3203 3211 
Q 3513 2838 3513 2113 
z
" transform="scale(0.015625)"/>
      <path id="DejaVuSans-74" d="M 1172 4494 
L 1172 3500 
L 2356 3500 
L 2356 3053 
L 1172 3053 
L 1172 1153 
Q 1172 725 1289 603 
Q 1406 481 1766 481 
L 2356 481 
L 2356 0 
L 1766 0 
Q 1100 0 847 248 
Q 594 497 594 1153 
L 594 3053 
L 172 3053 
L 172 3500 
L 594 3500 
L 594 4494 
L 1172 4494 
z
" transform="scale(0.015625)"/>
      <path id="DejaVuSans-61" d="M 2194 1759 
Q 1497 1759 1228 1600 
Q 959 1441 959 1056 
Q 959 750 1161 570 
Q 1363 391 1709 391 
Q 2188 391 2477 730 
Q 2766 1069 2766 1631 
L 2766 1759 
L 2194 1759 
z
M 3341 1997 
L 3341 0 
L 2766 0 
L 2766 531 
Q 2569 213 2275 61 
Q 1981 -91 1556 -91 
Q 1019 -91 701 211 
Q 384 513 384 1019 
Q 384 1609 779 1909 
Q 1175 2209 1959 2209 
L 2766 2209 
L 2766 2266 
Q 2766 2663 2505 2880 
Q 2244 3097 1772 3097 
Q 1472 3097 1187 3025 
Q 903 2953 641 2809 
L 641 3341 
Q 956 3463 1253 3523 
Q 1550 3584 1831 3584 
Q 2591 3584 2966 3190 
Q 3341 2797 3341 1997 
z
" transform="scale(0.015625)"/>
      <path id="DejaVuSans-6b" d="M 581 4863 
L 1159 4863 
L 1159 1991 
L 2875 3500 
L 3609 3500 
L 1753 1863 
L 3688 0 
L 2938 0 
L 1159 1709 
L 1159 0 
L 581 0 
L 581 4863 
z
" transform="scale(0.015625)"/>
      <path id="DejaVuSans-65" d="M 3597 1894 
L 3597 1613 
L 953 1613 
Q 991 1019 1311 708 
Q 1631 397 2203 397 
Q 2534 397 2845 478 
Q 3156 559 3463 722 
L 3463 178 
Q 3153 47 2828 -22 
Q 2503 -91 2169 -91 
Q 1331 -91 842 396 
Q 353 884 353 1716 
Q 353 2575 817 3079 
Q 1281 3584 2069 3584 
Q 2775 3584 3186 3129 
Q 3597 2675 3597 1894 
z
M 3022 2063 
Q 3016 2534 2758 2815 
Q 2500 3097 2075 3097 
Q 1594 3097 1305 2825 
Q 1016 2553 972 2059 
L 3022 2063 
z
" transform="scale(0.015625)"/>
     </defs>
     <use xlink:href="#DejaVuSans-49"/>
     <use xlink:href="#DejaVuSans-6e" transform="translate(29.492188 0)"/>
     <use xlink:href="#DejaVuSans-74" transform="translate(92.871094 0)"/>
     <use xlink:href="#DejaVuSans-61" transform="translate(132.080078 0)"/>
     <use xlink:href="#DejaVuSans-6b" transform="translate(193.359375 0)"/>
     <use xlink:href="#DejaVuSans-65" transform="translate(247.644531 0)"/>
    </g>
   </g>
   <g id="text_3">
    <!-- Design -->
    <g transform="translate(93.56529 120.839375) scale(0.1 -0.1)">
     <defs>
      <path id="DejaVuSans-44" d="M 1259 4147 
L 1259 519 
L 2022 519 
Q 2988 519 3436 956 
Q 3884 1394 3884 2338 
Q 3884 3275 3436 3711 
Q 2988 4147 2022 4147 
L 1259 4147 
z
M 628 4666 
L 1925 4666 
Q 3281 4666 3915 4102 
Q 4550 3538 4550 2338 
Q 4550 1131 3912 565 
Q 3275 0 1925 0 
L 628 0 
L 628 4666 
z
" transform="scale(0.015625)"/>
      <path id="DejaVuSans-73" d="M 2834 3397 
L 2834 2853 
Q 2591 2978 2328 3040 
Q 2066 3103 1784 3103 
Q 1356 3103 1142 2972 
Q 928 2841 928 2578 
Q 928 2378 1081 2264 
Q 1234 2150 1697 2047 
L 1894 2003 
Q 2506 1872 2764 1633 
Q 3022 1394 3022 966 
Q 3022 478 2636 193 
Q 2250 -91 1575 -91 
Q 1294 -91 989 -36 
Q 684 19 347 128 
L 347 722 
Q 666 556 975 473 
Q 1284 391 1588 391 
Q 1994 391 2212 530 
Q 2431 669 2431 922 
Q 2431 1156 2273 1281 
Q 2116 1406 1581 1522 
L 1381 1569 
Q 847 1681 609 1914 
Q 372 2147 372 2553 
Q 372 3047 722 3315 
Q 1072 3584 1716 3584 
Q 2034 3584 2315 3537 
Q 2597 3491 2834 3397 
z
" transform="scale(0.015625)"/>
      <path id="DejaVuSans-69" d="M 603 3500 
L 1178 3500 
L 1178 0 
L 603 0 
L 603 3500 
z
M 603 4863 
L 1178 4863 
L 1178 4134 
L 603 4134 
L 603 4863 
z
" transform="scale(0.015625)"/>
      <path id="DejaVuSans-67" d="M 2906 1791 
Q 2906 2416 2648 2759 
Q 2391 3103 1925 3103 
Q 1463 3103 1205 2759 
Q 947 2416 947 1791 
Q 947 1169 1205 825 
Q 1463 481 1925 481 
Q 2391 481 2648 825 
Q 2906 1169 2906 1791 
z
M 3481 434 
Q 3481 -459 3084 -895 
Q 2688 -1331 1869 -1331 
Q 1566 -1331 1297 -1286 
Q 1028 -1241 775 -1147 
L 775 -588 
Q 1028 -725 1275 -790 
Q 1522 -856 1778 -856 
Q 2344 -856 2625 -561 
Q 2906 -266 2906 331 
L 2906 616 
Q 2728 306 2450 153 
Q 2172 0 1784 0 
Q 1141 0 747 490 
Q 353 981 353 1791 
Q 353 2603 747 3093 
Q 1141 3584 1784 3584 
Q 2172 3584 2450 3431 
Q 2728 3278 2906 2969 
L 2906 3500 
L 3481 3500 
L 3481 434 
z
" transform="scale(0.015625)"/>
     </defs>
     <use xlink:href="#DejaVuSans-44"/>
     <use xlink:href="#DejaVuSans-65" transform="translate(77.001953 0)"/>
     <use xlink:href="#DejaVuSans-73" transform="translate(138.525391 0)"/>
     <use xlink:href="#DejaVuSans-69" transform="translate(190.625 0)"/>
     <use xlink:href="#DejaVuSans-67" transform="translate(218.408203 0)"/>
     <use xlink:href="#DejaVuSans-6e" transform="translate(281.884766 0)"/>
    </g>
   </g>
   <g id="text_4">
    <!-- Build -->
    <g transform="translate(181.179866 120.839375) scale(0.1 -0.1)">
     <defs>
      <path id="DejaVuSans-42" d="M 1259 2228 
L 1259 519 
L 2272 519 
Q 2781 519 3026 730 
Q 3272 941 3272 1375 
Q 3272 1813 3026 2020 
Q 2781 2228 2272 2228 
L 1259 2228 
z
M 1259 4147 
L 1259 2741 
L 2194 2741 
Q 2656 2741 2882 2914 
Q 3109 3088 3109 3444 
Q 3109 3797 2882 3972 
Q 2656 4147 2194 4147 
L 1259 4147 
z
M 628 4666 
L 2241 4666 
Q 2963 4666 3353 4366 
Q 3744 4066 3744 3513 
Q 3744 3084 3544 2831 
Q 3344 2578 2956 2516 
Q 3422 2416 3680 2098 
Q 3938 1781 3938 1306 
Q 3938 681 3513 340 
Q 3088 0 2303 0 
L 628 0 
L 628 4666 
z
" transform="scale(0.015625)"/>
      <path id="DejaVuSans-75" d="M 544 1381 
L 544 3500 
L 1119 3500 
L 1119 1403 
Q 1119 906 1312 657 
Q 1506 409 1894 409 
Q 2359 409 2629 706 
Q 2900 1003 2900 1516 
L 2900 3500 
L 3475 3500 
L 3475 0 
L 2900 0 
L 2900 538 
Q 2691 219 2414 64 
Q 2138 -91 1772 -91 
Q 1169 -91 856 284 
Q 544 659 544 1381 
z
M 1991 3584 
L 1991 3584 
z
" transform="scale(0.015625)"/>
      <path id="DejaVuSans-6c" d="M 603 4863 
L 1178 4863 
L 1178 0 
L 603 0 
L 603 4863 
z
" transform="scale(0.015625)"/>
      <path id="DejaVuSans-64" d="M 2906 2969 
L 2906 4863 
L 3481 4863 
L 3481 0 
L 2906 0 
L 2906 525 
Q 2725 213 2448 61 
Q 2172 -91 1784 -91 
Q 1150 -91 751 415 
Q 353 922 353 1747 
Q 353 2572 751 3078 
Q 1150 3584 1784 3584 
Q 2172 3584 2448 3432 
Q 2725 3281 2906 2969 
z
M 947 1747 
Q 947 1113 1208 752 
Q 1469 391 1925 391 
Q 2381 391 2643 752 
Q 2906 1113 2906 1747 
Q 2906 2381 2643 2742 
Q 2381 3103 1925 3103 
Q 1469 3103 1208 2742 
Q 947 2381 947 1747 
z
" transform="scale(0.015625)"/>
     </defs>
     <use xlink:href="#DejaVuSans-42"/>
     <use xlink:href="#DejaVuSans-75" transform="translate(68.603516 0)"/>
     <use xlink:href="#DejaVuSans-69" transform="translate(131.982422 0)"/>
     <use xlink:href="#DejaVuSans-6c" transform="translate(159.765625 0)"/>
     <use xlink:href="#DejaVuSans-64" transform="translate(187.548828 0)"/>
    </g>
   </g>
   <g id="text_5">
    <!-- Review -->
    <g transform="translate(258.794442 120.839375) scale(0.1 -0.1)">
     <defs>
      <path id="DejaVuSans-52" d="M 2841 2188 
Q 3044 2119 3236 1894 
Q 3428 1669 3622 1275 
L 4263 0 
L 3584 0 
L 2988 1197 
Q 2756 1666 2539 1819 
Q 2322 1972 1947 1972 
L 1259 1972 
L 1259 0 
L 628 0 
L 628 4666 
L 2053 4666 
Q 2853 4666 3247 4331 
Q 3641 3997 3641 3322 
Q 3641 2881 3436 2590 
Q 3231 2300 2841 2188 
z
M 1259 4147 
L 1259 2491 
L 2053 2491 
Q 2509 2491 2742 2702 
Q 2975 2913 2975 3322 
Q 2975 3731 2742 3939 
Q 2509 4147 2053 4147 
L 1259 4147 
z
" transform="scale(0.015625)"/>
      <path id="DejaVuSans-76" d="M 191 3500 
L 800 3500 
L 1894 563 
L 2988 3500 
L 3597 3500 
L 2284 0 
L 1503 0 
L 191 3500 
z
" transform="scale(0.015625)"/>
      <path id="DejaVuSans-77" d="M 269 3500 
L 844 3500 
L 1563 769 
L 2278 3500 
L 2956 3500 
L 3675 769 
L 4391 3500 
L 4966 3500 
L 4050 0 
L 3372 0 
L 2619 2869 
L 1863 0 
L 1184 0 
L 269 3500 
z
" transform="scale(0.015625)"/>
     </defs>
     <use xlink:href="#DejaVuSans-52"/>
     <use xlink:href="#DejaVuSans-65" transform="translate(64.982422 0)"/>
     <use xlink:href="#DejaVuSans-76" transform="translate(126.505859 0)"/>
     <use xlink:href="#DejaVuSans-69" transform="translate(185.685547 0)"/>
     <use xlink:href="#DejaVuSans-65" transform="translate(213.46875 0)"/>
     <use xlink:href="#DejaVuSans-77" transform="translate(274.992188 0)"/>
    </g>
   </g>
   <g id="text_6">
    <!-- Validate -->
    <g transform="translate(339.387143 120.839375) scale(0.1 -0.1)">
     <defs>
      <path id="DejaVuSans-56" d="M 1831 0 
L 50 4666 
L 709 4666 
L 2188 738 
L 3669 4666 
L 4325 4666 
L 2547 0 
L 1831 0 
z
" transform="scale(0.015625)"/>
     </defs>
     <use xlink:href="#DejaVuSans-56"/>
     <use xlink:href="#DejaVuSans-61" transform="translate(60.658203 0)"/>
     <use xlink:href="#DejaVuSans-6c" transform="translate(121.9375 0)"/>
     <use xlink:href="#DejaVuSans-69" transform="translate(149.720703 0)"/>
     <use xlink:href="#DejaVuSans-64" transform="translate(177.503906 0)"/>
     <use xlink:href="#DejaVuSans-61" transform="translate(240.980469 0)"/>
     <use xlink:href="#DejaVuSans-74" transform="translate(302.259766 0)"/>
     <use xlink:href="#DejaVuSans-65" transform="translate(341.46875 0)"/>
    </g>
   </g>
   <g id="text_7">
    <!-- Tune -->
    <g transform="translate(430.728281 120.839375) scale(0.1 -0.1)">
     <defs>
      <path id="DejaVuSans-54" d="M -19 4666 
L 3928 4666 
L 3928 4134 
L 2272 4134 
L 2272 0 
L 1638 0 
L 1638 4134 
L -19 4134 
L -19 4666 
z
" transform="scale(0.015625)"/>
     </defs>
     <use xlink:href="#DejaVuSans-54"/>
     <use xlink:href="#DejaVuSans-75" transform="translate(45.958984 0)"/>
     <use xlink:href="#DejaVuSans-6e" transform="translate(109.337891 0)"/>
     <use xlink:href="#DejaVuSans-65" transform="translate(172.716797 0)"/>
    </g>
   </g>
   <g id="text_8">
    <!-- Promote -->
    <g transform="translate(504.446763 120.839375) scale(0.1 -0.1)">
     <defs>
      <path id="DejaVuSans-50" d="M 1259 4147 
L 1259 2394 
L 2053 2394 
Q 2494 2394 2734 2622 
Q 2975 2850 2975 3272 
Q 2975 3691 2734 3919 
Q 2494 4147 2053 4147 
L 1259 4147 
z
M 628 4666 
L 2053 4666 
Q 2838 4666 3239 4311 
Q 3641 3956 3641 3272 
Q 3641 2581 3239 2228 
Q 2838 1875 2053 1875 
L 1259 1875 
L 1259 0 
L 628 0 
L 628 4666 
z
" transform="scale(0.015625)"/>
      <path id="DejaVuSans-72" d="M 2631 2963 
Q 2534 3019 2420 3045 
Q 2306 3072 2169 3072 
Q 1681 3072 1420 2755 
Q 1159 2438 1159 1844 
L 1159 0 
L 581 0 
L 581 3500 
L 1159 3500 
L 1159 2956 
Q 1341 3275 1631 3429 
Q 1922 3584 2338 3584 
Q 2397 3584 2469 3576 
Q 2541 3569 2628 3553 
L 2631 2963 
z
" transform="scale(0.015625)"/>
      <path id="DejaVuSans-6f" d="M 1959 3097 
Q 1497 3097 1228 2736 
Q 959 2375 959 1747 
Q 959 1119 1226 758 
Q 1494 397 1959 397 
Q 2419 397 2687 759 
Q 2956 1122 2956 1747 
Q 2956 2369 2687 2733 
Q 2419 3097 1959 3097 
z
M 1959 3584 
Q 2709 3584 3137 3096 
Q 3566 2609 3566 1747 
Q 3566 888 3137 398 
Q 2709 -91 1959 -91 
Q 1206 -91 779 398 
Q 353 888 353 1747 
Q 353 2609 779 3096 
Q 1206 3584 1959 3584 
z
" transform="scale(0.015625)"/>
      <path id="DejaVuSans-6d" d="M 3328 2828 
Q 3544 3216 3844 3400 
Q 4144 3584 4550 3584 
Q 5097 3584 5394 3201 
Q 5691 2819 5691 2113 
L 5691 0 
L 5113 0 
L 5113 2094 
Q 5113 2597 4934 2840 
Q 4756 3084 4391 3084 
Q 3944 3084 3684 2787 
Q 3425 2491 3425 1978 
L 3425 0 
L 2847 0 
L 2847 2094 
Q 2847 2600 2669 2842 
Q 2491 3084 2119 3084 
Q 1678 3084 1418 2786 
Q 1159 2488 1159 1978 
L 1159 0 
L 581 0 
L 581 3500 
L 1159 3500 
L 1159 2956 
Q 1356 3278 1631 3431 
Q 1906 3584 2284 3584 
Q 2666 3584 2933 3390 
Q 3200 3197 3328 2828 
z
" transform="scale(0.015625)"/>
     </defs>
     <use xlink:href="#DejaVuSans-50"/>
     <use xlink:href="#DejaVuSans-72" transform="translate(58.552734 0)"/>
     <use xlink:href="#DejaVuSans-6f" transform="translate(97.416016 0)"/>
     <use xlink:href="#DejaVuSans-6d" transform="translate(158.597656 0)"/>
     <use xlink:href="#DejaVuSans-6f" transform="translate(256.009766 0)"/>
     <use xlink:href="#DejaVuSans-74" transform="translate(317.191406 0)"/>
     <use xlink:href="#DejaVuSans-65" transform="translate(356.400391 0)"/>
    </g>
   </g>
   <g id="text_9">
    <!-- Maintain -->
    <g transform="translate(586.727746 120.839375) scale(0.1 -0.1)">
     <defs>
      <path id="DejaVuSans-4d" d="M 628 4666 
L 1569 4666 
L 2759 1491 
L 3956 4666 
L 4897 4666 
L 4897 0 
L 4281 0 
L 4281 4097 
L 3078 897 
L 2444 897 
L 1241 4097 
L 1241 0 
L 628 0 
L 628 4666 
z
" transform="scale(0.015625)"/>
     </defs>
     <use xlink:href="#DejaVuSans-4d"/>
     <use xlink:href="#DejaVuSans-61" transform="translate(86.279297 0)"/>
     <use xlink:href="#DejaVuSans-69" transform="translate(147.558594 0)"/>
     <use xlink:href="#DejaVuSans-6e" transform="translate(175.341797 0)"/>
     <use xlink:href="#DejaVuSans-74" transform="translate(238.720703 0)"/>
     <use xlink:href="#DejaVuSans-61" transform="translate(277.929688 0)"/>
     <use xlink:href="#DejaVuSans-69" transform="translate(339.208984 0)"/>
     <use xlink:href="#DejaVuSans-6e" transform="translate(366.992188 0)"/>
    </g>
   </g>
   <g id="text_10">
    <!-- Lifecycle states: experimental → testing → production → deprecated -->
    <g transform="translate(157.000592 190.152) scale(0.11 -0.11)">
     <defs>
      <path id="DejaVuSans-4c" d="M 628 4666 
L 1259 4666 
L 1259 531 
L 3531 531 
L 3531 0 
L 628 0 
L 628 4666 
z
" transform="scale(0.015625)"/>
      <path id="DejaVuSans-66" d="M 2375 4863 
L 2375 4384 
L 1825 4384 
Q 1516 4384 1395 4259 
Q 1275 4134 1275 3809 
L 1275 3500 
L 2222 3500 
L 2222 3053 
L 1275 3053 
L 1275 0 
L 697 0 
L 697 3053 
L 147 3053 
L 147 3500 
L 697 3500 
L 697 3744 
Q 697 4328 969 4595 
Q 1241 4863 1831 4863 
L 2375 4863 
z
" transform="scale(0.015625)"/>
      <path id="DejaVuSans-63" d="M 3122 3366 
L 3122 2828 
Q 2878 2963 2633 3030 
Q 2388 3097 2138 3097 
Q 1578 3097 1268 2742 
Q 959 2388 959 1747 
Q 959 1106 1268 751 
Q 1578 397 2138 397 
Q 2388 397 2633 464 
Q 2878 531 3122 666 
L 3122 134 
Q 2881 22 2623 -34 
Q 2366 -91 2075 -91 
Q 1284 -91 818 406 
Q 353 903 353 1747 
Q 353 2603 823 3093 
Q 1294 3584 2113 3584 
Q 2378 3584 2631 3529 
Q 2884 3475 3122 3366 
z
" transform="scale(0.015625)"/>
      <path id="DejaVuSans-79" d="M 2059 -325 
Q 1816 -950 1584 -1140 
Q 1353 -1331 966 -1331 
L 506 -1331 
L 506 -850 
L 844 -850 
Q 1081 -850 1212 -737 
Q 1344 -625 1503 -206 
L 1606 56 
L 191 3500 
L 800 3500 
L 1894 763 
L 2988 3500 
L 3597 3500 
L 2059 -325 
z
" transform="scale(0.015625)"/>
      <path id="DejaVuSans-20" transform="scale(0.015625)"/>
      <path id="DejaVuSans-3a" d="M 750 794 
L 1409 794 
L 1409 0 
L 750 0 
L 750 794 
z
M 750 3309 
L 1409 3309 
L 1409 2516 
L 750 2516 
L 750 3309 
z
" transform="scale(0.015625)"/>
      <path id="DejaVuSans-78" d="M 3513 3500 
L 2247 1797 
L 3578 0 
L 2900 0 
L 1881 1375 
L 863 0 
L 184 0 
L 1544 1831 
L 300 3500 
L 978 3500 
L 1906 2253 
L 2834 3500 
L 3513 3500 
z
" transform="scale(0.015625)"/>
      <path id="DejaVuSans-70" d="M 1159 525 
L 1159 -1331 
L 581 -1331 
L 581 3500 
L 1159 3500 
L 1159 2969 
Q 1341 3281 1617 3432 
Q 1894 3584 2278 3584 
Q 2916 3584 3314 3078 
Q 3713 2572 3713 1747 
Q 3713 922 3314 415 
Q 2916 -91 2278 -91 
Q 1894 -91 1617 61 
Q 1341 213 1159 525 
z
M 3116 1747 
Q 3116 2381 2855 2742 
Q 2594 3103 2138 3103 
Q 1681 3103 1420 2742 
Q 1159 2381 1159 1747 
Q 1159 1113 1420 752 
Q 1681 391 2138 391 
Q 2594 391 2855 752 
Q 3116 1113 3116 1747 
z
" transform="scale(0.015625)"/>
      <path id="DejaVuSans-2192" d="M 5050 2147 
L 5050 1866 
L 3822 638 
L 3447 1013 
L 4175 1741 
L 366 1741 
L 366 2272 
L 4175 2272 
L 3447 3000 
L 3822 3375 
L 5050 2147 
z
" transform="scale(0.015625)"/>
     </defs>
     <use xlink:href="#DejaVuSans-4c"/>
     <use xlink:href="#DejaVuSans-69" transform="translate(55.712891 0)"/>
     <use xlink:href="#DejaVuSans-66" transform="translate(83.496094 0)"/>
     <use xlink:href="#DejaVuSans-65" transform="translate(118.701172 0)"/>
     <use xlink:href="#DejaVuSans-63" transform="translate(180.224609 0)"/>
     <use xlink:href="#DejaVuSans-79" transform="translate(235.205078 0)"/>
     <use xlink:href="#DejaVuSans-63" transform="translate(294.384766 0)"/>
     <use xlink:href="#DejaVuSans-6c" transform="translate(349.365234 0)"/>
     <use xlink:href="#DejaVuSans-65" transform="translate(377.148438 0)"/>
     <use xlink:href="#DejaVuSans-20" transform="translate(438.671875 0)"/>
     <use xlink:href="#DejaVuSans-73" transform="translate(470.458984 0)"/>
     <use xlink:href="#DejaVuSans-74" transform="translate(522.558594 0)"/>
     <use xlink:href="#DejaVuSans-61" transform="translate(561.767578 0)"/>
     <use xlink:href="#DejaVuSans-74" transform="translate(623.046875 0)"/>
     <use xlink:href="#DejaVuSans-65" transform="translate(662.255859 0)"/>
     <use xlink:href="#DejaVuSans-73" transform="translate(723.779297 0)"/>
     <use xlink:href="#DejaVuSans-3a" transform="translate(775.878906 0)"/>
     <use xlink:href="#DejaVuSans-20" transform="translate(809.570312 0)"/>
     <use xlink:href="#DejaVuSans-65" transform="translate(841.357422 0)"/>
     <use xlink:href="#DejaVuSans-78" transform="translate(901.130859 0)"/>
     <use xlink:href="#DejaVuSans-70" transform="translate(960.310547 0)"/>
     <use xlink:href="#DejaVuSans-65" transform="translate(1023.787109 0)"/>
     <use xlink:href="#DejaVuSans-72" transform="translate(1085.310547 0)"/>
     <use xlink:href="#DejaVuSans-69" transform="translate(1126.423828 0)"/>
     <use xlink:href="#DejaVuSans-6d" transform="translate(1154.207031 0)"/>
     <use xlink:href="#DejaVuSans-65" transform="translate(1251.619141 0)"/>
     <use xlink:href="#DejaVuSans-6e" transform="translate(1313.142578 0)"/>
     <use xlink:href="#DejaVuSans-74" transform="translate(1376.521484 0)"/>
     <use xlink:href="#DejaVuSans-61" transform="translate(1415.730469 0)"/>
     <use xlink:href="#DejaVuSans-6c" transform="translate(1477.009766 0)"/>
     <use xlink:href="#DejaVuSans-20" transform="translate(1504.792969 0)"/>
     <use xlink:href="#DejaVuSans-2192" transform="translate(1536.580078 0)"/>
     <use xlink:href="#DejaVuSans-20" transform="translate(1620.369141 0)"/>
     <use xlink:href="#DejaVuSans-74" transform="translate(1652.15625 0)"/>
     <use xlink:href="#DejaVuSans-65" transform="translate(1691.365234 0)"/>
     <use xlink:href="#DejaVuSans-73" transform="translate(1752.888672 0)"/>
     <use xlink:href="#DejaVuSans-74" transform="translate(1804.988281 0)"/>
     <use xlink:href="#DejaVuSans-69" transform="translate(1844.197266 0)"/>
     <use xlink:href="#DejaVuSans-6e" transform="translate(1871.980469 0)"/>
     <use xlink:href="#DejaVuSans-67" transform="translate(1935.359375 0)"/>
     <use xlink:href="#DejaVuSans-20" transform="translate(1998.835938 0)"/>
     <use xlink:href="#DejaVuSans-2192" transform="translate(2030.623047 0)"/>
     <use xlink:href="#DejaVuSans-20" transform="translate(2114.412109 0)"/>
     <use xlink:href="#DejaVuSans-70" transform="translate(2146.199219 0)"/>
     <use xlink:href="#DejaVuSans-72" transform="translate(2209.675781 0)"/>
     <use xlink:href="#DejaVuSans-6f" transform="translate(2248.539062 0)"/>
     <use xlink:href="#DejaVuSans-64" transform="translate(2309.720703 0)"/>
     <use xlink:href="#DejaVuSans-75" transform="translate(2373.197266 0)"/>
     <use xlink:href="#DejaVuSans-63" transform="translate(2436.576172 0)"/>
     <use xlink:href="#DejaVuSans-74" transform="translate(2491.556641 0)"/>
     <use xlink:href="#DejaVuSans-69" transform="translate(2530.765625 0)"/>
     <use xlink:href="#DejaVuSans-6f" transform="translate(2558.548828 0)"/>
     <use xlink:href="#DejaVuSans-6e" transform="translate(2619.730469 0)"/>
     <use xlink:href="#DejaVuSans-20" transform="translate(2683.109375 0)"/>
     <use xlink:href="#DejaVuSans-2192" transform="translate(2714.896484 0)"/>
     <use xlink:href="#DejaVuSans-20" transform="translate(2798.685547 0)"/>
     <use xlink:href="#DejaVuSans-64" transform="translate(2830.472656 0)"/>
     <use xlink:href="#DejaVuSans-65" transform="translate(2893.949219 0)"/>
     <use xlink:href="#DejaVuSans-70" transform="translate(2955.472656 0)"/>
     <use xlink:href="#DejaVuSans-72" transform="translate(3018.949219 0)"/>
     <use xlink:href="#DejaVuSans-65" transform="translate(3057.8125 0)"/>
     <use xlink:href="#DejaVuSans-63" transform="translate(3119.335938 0)"/>
     <use xlink:href="#DejaVuSans-61" transform="translate(3174.316406 0)"/>
     <use xlink:href="#DejaVuSans-74" transform="translate(3235.595703 0)"/>
     <use xlink:href="#DejaVuSans-65" transform="translate(3274.804688 0)"/>
     <use xlink:href="#DejaVuSans-64" transform="translate(3336.328125 0)"/>
    </g>
   </g>
  </g>
 </g>
 <defs>
  <clipPath id="p822de90f9b">
   <rect x="7.2" y="7.2" width="725.4" height="221.76"/>
  </clipPath>
 </defs>
</svg>
