<?xml version="1.0" encoding="utf-8" standalone="no"?>
<!DOCTYPE svg PUBLIC "-//W3C//DTD SVG 1.1//EN"
  "http://www.w3.org/Graphics/SVG/1.1/DTD/svg11.dtd">
<svg xmlns:xlink="http://www.w3.org/1999/xlink" width="684pt" height="402.48pt" viewBox="0 0 684 402.48" xmlns="http://www.w3.org/2000/svg" version="1.1">
 <metadata>
  <rdf:RDF xmlns:dc="http://purl.org/dc/elements/1.1/" xmlns:cc="http://creativecommons.org/ns#" xmlns:rdf="http://www.w3.org/1999/02/22-rdf-syntax-ns#">
   <cc:Work>
    <dc:type rdf:resource="http://purl.org/dc/dcmitype/StillImage"/>
    <dc:date>2026-03-07T00:39:07.933298</dc:date>
    <dc:format>image/svg+xml</dc:format>
    <dc:creator>
     <cc:Agent>
      <dc:title>Matplotlib v3.10.8, https://matplotlib.org/</dc:title>
     </cc:Agent>
    </dc:creator>
   </cc:Work>
  </rdf:RDF>
 </metadata>
 <defs>
  <style type="text/css">*{stroke-linejoin: round; stroke-linecap: butt}</style>
 </defs>
 <g id="figure_1">
  <g id="patch_1">
   <path d="M 0 402.48 
L 684 402.48 
L 684 -0 
L 0 -0 
z
" style="fill: #ffffff"/>
  </g>
  <g id="axes_1">
   <g id="patch_2">
    <path d="M 44.6976 135.8208 
L 170.5824 135.8208 
Q 175.9392 135.8208 175.9392 131.3856 
L 175.9392 77.0544 
Q 175.9392 72.6192 170.5824 72.6192 
L 44.6976 72.6192 
Q 39.3408 72.6192 39.3408 77.0544 
L 39.3408 131.3856 
Q 39.3408 135.8208 44.6976 135.8208 
L 44.6976 135.8208 
z
" clip-path="url(#p7eeeb2f479)" style="fill: none; stroke: #000000; stroke-width: 1.8; stroke-linejoin: miter"/>
   </g>
   <g id="patch_3">
    <path d="M 205.4016 135.8208 
L 331.2864 135.8208 
Q 336.6432 135.8208 336.6432 131.3856 
L 336.6432 77.0544 
Q 336.6432 72.6192 331.2864 72.6192 
L 205.4016 72.6192 
Q 200.0448 72.6192 200.0448 77.0544 
L 200.0448 131.3856 
Q 200.0448 135.8208 205.4016 135.8208 
L 205.4016 135.8208 
z
" clip-path="url(#p7eeeb2f479)" style="fill: none; stroke: #000000; stroke-width: 1.8; stroke-linejoin: miter"/>
   </g>
   <g id="patch_4">
    <path d="M 366.1056 135.8208 
L 491.9904 135.8208 
Q 497.3472 135.8208 497.3472 131.3856 
L 497.3472 77.0544 
Q 497.3472 72.6192 491.9904 72.6192 
L 366.1056 72.6192 
Q 360.7488 72.6192 360.7488 77.0544 
L 360.7488 131.3856 
Q 360.7488 135.8208 366.1056 135.8208 
L 366.1056 135.8208 
z
" clip-path="url(#p7eeeb2f479)" style="fill: none; stroke: #000000; stroke-width: 1.8; stroke-linejoin: miter"/>
   </g>
   <g id="patch_5">
    <path d="M 526.8096 135.8208 
L 639.3024 135.8208 
Q 644.6592 135.8208 644.6592 131.3856 
L 644.6592 77.0544 
Q 644.6592 72.6192 639.3024 72.6192 
L 526.8096 72.6192 
Q 521.4528 72.6192 521.4528 77.0544 
L 521.4528 131.3856 
Q 521.4528 135.8208 526.8096 135.8208 
L 526.8096 135.8208 
z
" clip-path="url(#p7eeeb2f479)" style="fill: none; stroke: #000000; stroke-width: 1.8; stroke-linejoin: miter"/>
   </g>
   <g id="patch_6">
    <path d="M 64.7856 241.1568 
L 177.2784 241.1568 
Q 182.6352 241.1568 182.6352 236.7216 
L 182.6352 187.9344 
Q 182.6352 183.4992 177.2784 183.4992 
L 64.7856 183.4992 
Q 59.4288 183.4992 59.4288 187.9344 
L 59.4288 236.7216 
Q 59.4288 241.1568 64.7856 241.1568 
L 64.7856 241.1568 
z
" clip-path="url(#p7eeeb2f479)" style="fill: none; stroke: #000000; stroke-width: 1.8; stroke-linejoin: miter"/>
   </g>
   <g id="patch_7">
    <path d="M 205.4016 241.1568 
L 317.8944 241.1568 
Q 323.2512 241.1568 323.2512 236.7216 
L 323.2512 187.9344 
Q 323.2512 183.4992 317.8944 183.4992 
L 205.4016 183.4992 
Q 200.0448 183.4992 200.0448 187.9344 
L 200.0448 236.7216 
Q 200.0448 241.1568 205.4016 241.1568 
L 205.4016 241.1568 
z
" clip-path="url(#p7eeeb2f479)" style="fill: none; stroke: #000000; stroke-width: 1.8; stroke-linejoin: miter"/>
   </g>
   <g id="patch_8">
    <path d="M 346.0176 241.1568 
L 458.5104 241.1568 
Q 463.8672 241.1568 463.8672 236.7216 
L 463.8672 187.9344 
Q 463.8672 183.4992 458.5104 183.4992 
L 346.0176 183.4992 
Q 340.6608 183.4992 340.6608 187.9344 
L 340.6608 236.7216 
Q 340.6608 241.1568 346.0176 241.1568 
L 346.0176 241.1568 
z
" clip-path="url(#p7eeeb2f479)" style="fill: none; stroke: #000000; stroke-width: 1.8; stroke-linejoin: miter"/>
   </g>
   <g id="patch_9">
    <path d="M 486.6336 241.1568 
L 599.1264 241.1568 
Q 604.4832 241.1568 604.4832 236.7216 
L 604.4832 187.9344 
Q 604.4832 183.4992 599.1264 183.4992 
L 486.6336 183.4992 
Q 481.2768 183.4992 481.2768 187.9344 
L 481.2768 236.7216 
Q 481.2768 241.1568 486.6336 241.1568 
L 486.6336 241.1568 
z
" clip-path="url(#p7eeeb2f479)" style="fill: none; stroke: #000000; stroke-width: 1.8; stroke-linejoin: miter"/>
   </g>
   <g id="patch_10">
    <path d="M 145.1376 340.9488 
L 284.4144 340.9488 
Q 289.7712 340.9488 289.7712 336.5136 
L 289.7712 293.2704 
Q 289.7712 288.8352 284.4144 288.8352 
L 145.1376 288.8352 
Q 139.7808 288.8352 139.7808 293.2704 
L 139.7808 336.5136 
Q 139.7808 340.9488 145.1376 340.9488 
L 145.1376 340.9488 
z
" clip-path="url(#p7eeeb2f479)" style="fill: none; stroke: #000000; stroke-width: 1.8; stroke-linejoin: miter"/>
   </g>
   <g id="patch_11">
    <path d="M 305.8416 340.9488 
L 445.1184 340.9488 
Q 450.4752 340.9488 450.4752 336.5136 
L 450.4752 293.2704 
Q 450.4752 288.8352 445.1184 288.8352 
L 305.8416 288.8352 
Q 300.4848 288.8352 300.4848 293.2704 
L 300.4848 336.5136 
Q 300.4848 340.9488 305.8416 340.9488 
L 305.8416 340.9488 
z
" clip-path="url(#p7eeeb2f479)" style="fill: none; stroke: #000000; stroke-width: 1.8; stroke-linejoin: miter"/>
   </g>
   <g id="patch_12">
    <path d="M 466.5456 340.9488 
L 592.4304 340.9488 
Q 597.7872 340.9488 597.7872 336.5136 
L 597.7872 293.2704 
Q 597.7872 288.8352 592.4304 288.8352 
L 466.5456 288.8352 
Q 461.1888 288.8352 461.1888 293.2704 
L 461.1888 336.5136 
Q 461.1888 340.9488 466.5456 340.9488 
L 466.5456 340.9488 
z
" clip-path="url(#p7eeeb2f479)" style="fill: none; stroke: #000000; stroke-width: 1.8; stroke-linejoin: miter"/>
   </g>
   <g id="patch_13">
    <path d="M 176.597684 104.22 
Q 187.990857 104.22 197.706979 104.22 
" clip-path="url(#p7eeeb2f479)" style="fill: none; stroke: #000000; stroke-width: 1.5; stroke-linecap: round"/>
    <path d="M 190.506979 100.62 
L 197.706979 104.22 
L 190.506979 107.82 
" clip-path="url(#p7eeeb2f479)" style="fill: none; stroke: #000000; stroke-width: 1.5; stroke-linecap: round"/>
   </g>
   <g id="patch_14">
    <path d="M 337.301684 104.22 
Q 348.694857 104.22 358.410979 104.22 
" clip-path="url(#p7eeeb2f479)" style="fill: none; stroke: #000000; stroke-width: 1.5; stroke-linecap: round"/>
    <path d="M 351.210979 100.62 
L 358.410979 104.22 
L 351.210979 107.82 
" clip-path="url(#p7eeeb2f479)" style="fill: none; stroke: #000000; stroke-width: 1.5; stroke-linecap: round"/>
   </g>
   <g id="patch_15">
    <path d="M 498.005684 104.22 
Q 509.398857 104.22 519.114979 104.22 
" clip-path="url(#p7eeeb2f479)" style="fill: none; stroke: #000000; stroke-width: 1.5; stroke-linecap: round"/>
    <path d="M 511.914979 100.62 
L 519.114979 104.22 
L 511.914979 107.82 
" clip-path="url(#p7eeeb2f479)" style="fill: none; stroke: #000000; stroke-width: 1.5; stroke-linecap: round"/>
   </g>
   <g id="patch_16">
    <path d="M 183.292049 212.328 
Q 191.337578 212.328 197.706057 212.328 
" clip-path="url(#p7eeeb2f479)" style="fill: none; stroke: #000000; stroke-width: 1.5; stroke-linecap: round"/>
    <path d="M 190.506057 208.728 
L 197.706057 212.328 
L 190.506057 215.928 
" clip-path="url(#p7eeeb2f479)" style="fill: none; stroke: #000000; stroke-width: 1.5; stroke-linecap: round"/>
   </g>
   <g id="patch_17">
    <path d="M 323.908049 212.328 
Q 331.953578 212.328 338.322057 212.328 
" clip-path="url(#p7eeeb2f479)" style="fill: none; stroke: #000000; stroke-width: 1.5; stroke-linecap: round"/>
    <path d="M 331.122057 208.728 
L 338.322057 212.328 
L 331.122057 215.928 
" clip-path="url(#p7eeeb2f479)" style="fill: none; stroke: #000000; stroke-width: 1.5; stroke-linecap: round"/>
   </g>
   <g id="patch_18">
    <path d="M 464.524049 212.328 
Q 472.569578 212.328 478.938057 212.328 
" clip-path="url(#p7eeeb2f479)" style="fill: none; stroke: #000000; stroke-width: 1.5; stroke-linecap: round"/>
    <path d="M 471.738057 208.728 
L 478.938057 212.328 
L 471.738057 215.928 
" clip-path="url(#p7eeeb2f479)" style="fill: none; stroke: #000000; stroke-width: 1.5; stroke-linecap: round"/>
   </g>
   <g id="patch_19">
    <path d="M 121.032 136.712834 
Q 121.032 159.659191 121.032 181.263906 
" clip-path="url(#p7eeeb2f479)" style="fill: none; stroke: #000000; stroke-width: 1.2; stroke-linecap: round"/>
    <path d="M 124.232 174.863906 
L 121.032 181.263906 
L 117.832 174.863906 
" clip-path="url(#p7eeeb2f479)" style="fill: none; stroke: #000000; stroke-width: 1.2; stroke-linecap: round"/>
   </g>
   <g id="patch_20">
    <path d="M 268.344 136.712834 
Q 268.344 159.659191 268.344 181.263906 
" clip-path="url(#p7eeeb2f479)" style="fill: none; stroke: #000000; stroke-width: 1.2; stroke-linecap: round"/>
    <path d="M 271.544 174.863906 
L 268.344 181.263906 
L 265.144 174.863906 
" clip-path="url(#p7eeeb2f479)" style="fill: none; stroke: #000000; stroke-width: 1.2; stroke-linecap: round"/>
   </g>
   <g id="patch_21">
    <path d="M 429.048 136.712834 
Q 429.048 159.659191 429.048 181.263906 
" clip-path="url(#p7eeeb2f479)" style="fill: none; stroke: #000000; stroke-width: 1.2; stroke-linecap: round"/>
    <path d="M 432.248 174.863906 
L 429.048 181.263906 
L 425.848 174.863906 
" clip-path="url(#p7eeeb2f479)" style="fill: none; stroke: #000000; stroke-width: 1.2; stroke-linecap: round"/>
   </g>
   <g id="patch_22">
    <path d="M 583.056 136.712834 
Q 583.056 159.659191 583.056 181.263906 
" clip-path="url(#p7eeeb2f479)" style="fill: none; stroke: #000000; stroke-width: 1.2; stroke-linecap: round"/>
    <path d="M 586.256 174.863906 
L 583.056 181.263906 
L 579.856 174.863906 
" clip-path="url(#p7eeeb2f479)" style="fill: none; stroke: #000000; stroke-width: 1.2; stroke-linecap: round"/>
   </g>
   <g id="patch_23">
    <path d="M 214.776 287.943166 
Q 214.776 264.996809 214.776 243.392094 
" clip-path="url(#p7eeeb2f479)" style="fill: none; stroke: #000000; stroke-width: 1.2; stroke-linecap: round"/>
    <path d="M 211.576 249.792094 
L 214.776 243.392094 
L 217.976 249.792094 
" clip-path="url(#p7eeeb2f479)" style="fill: none; stroke: #000000; stroke-width: 1.2; stroke-linecap: round"/>
   </g>
   <g id="patch_24">
    <path d="M 375.48 287.943166 
Q 375.48 264.996809 375.48 243.392094 
" clip-path="url(#p7eeeb2f479)" style="fill: none; stroke: #000000; stroke-width: 1.2; stroke-linecap: round"/>
    <path d="M 372.28 249.792094 
L 375.48 243.392094 
L 378.68 249.792094 
" clip-path="url(#p7eeeb2f479)" style="fill: none; stroke: #000000; stroke-width: 1.2; stroke-linecap: round"/>
   </g>
   <g id="patch_25">
    <path d="M 529.488 287.943166 
Q 529.488 264.996809 529.488 243.392094 
" clip-path="url(#p7eeeb2f479)" style="fill: none; stroke: #000000; stroke-width: 1.2; stroke-linecap: round"/>
    <path d="M 526.288 249.792094 
L 529.488 243.392094 
L 532.688 249.792094 
" clip-path="url(#p7eeeb2f479)" style="fill: none; stroke: #000000; stroke-width: 1.2; stroke-linecap: round"/>
   </g>
   <g id="text_1">
    <!-- Detection Engineering Operating Model -->
    <g transform="translate(140.518125 34.272562) scale(0.18 -0.18)">
     <defs>
      <path id="DejaVuSans-Bold-44" d="M 1791 3756 
L 1791 909 
L 2222 909 
Q 2959 909 3348 1275 
Q 3738 1641 3738 2338 
Q 3738 3031 3350 3393 
Q 2963 3756 2222 3756 
L 1791 3756 
z
M 588 4666 
L 1856 4666 
Q 2919 4666 3439 4514 
Q 3959 4363 4331 4000 
Q 4659 3684 4818 3271 
Q 4978 2859 4978 2338 
Q 4978 1809 4818 1395 
Q 4659 981 4331 666 
Q 3956 303 3431 151 
Q 2906 0 1856 0 
L 588 0 
L 588 4666 
z
" transform="scale(0.015625)"/>
      <path id="DejaVuSans-Bold-65" d="M 4031 1759 
L 4031 1441 
L 1416 1441 
Q 1456 1047 1700 850 
Q 1944 653 2381 653 
Q 2734 653 3104 758 
Q 3475 863 3866 1075 
L 3866 213 
Q 3469 63 3072 -14 
Q 2675 -91 2278 -91 
Q 1328 -91 801 392 
Q 275 875 275 1747 
Q 275 2603 792 3093 
Q 1309 3584 2216 3584 
Q 3041 3584 3536 3087 
Q 4031 2591 4031 1759 
z
M 2881 2131 
Q 2881 2450 2695 2645 
Q 2509 2841 2209 2841 
Q 1884 2841 1681 2658 
Q 1478 2475 1428 2131 
L 2881 2131 
z
" transform="scale(0.015625)"/>
      <path id="DejaVuSans-Bold-74" d="M 1759 4494 
L 1759 3500 
L 2913 3500 
L 2913 2700 
L 1759 2700 
L 1759 1216 
Q 1759 972 1856 886 
Q 1953 800 2241 800 
L 2816 800 
L 2816 0 
L 1856 0 
Q 1194 0 917 276 
Q 641 553 641 1216 
L 641 2700 
L 84 2700 
L 84 3500 
L 641 3500 
L 641 4494 
L 1759 4494 
z
" transform="scale(0.015625)"/>
      <path id="DejaVuSans-Bold-63" d="M 3366 3391 
L 3366 2478 
Q 3138 2634 2908 2709 
Q 2678 2784 2431 2784 
Q 1963 2784 1702 2511 
Q 1441 2238 1441 1747 
Q 1441 1256 1702 982 
Q 1963 709 2431 709 
Q 2694 709 2930 787 
Q 3166 866 3366 1019 
L 3366 103 
Q 3103 6 2833 -42 
Q 2563 -91 2291 -91 
Q 1344 -91 809 395 
Q 275 881 275 1747 
Q 275 2613 809 3098 
Q 1344 3584 2291 3584 
Q 2566 3584 2833 3536 
Q 3100 3488 3366 3391 
z
" transform="scale(0.015625)"/>
      <path id="DejaVuSans-Bold-69" d="M 538 3500 
L 1656 3500 
L 1656 0 
L 538 0 
L 538 3500 
z
M 538 4863 
L 1656 4863 
L 1656 3950 
L 538 3950 
L 538 4863 
z
" transform="scale(0.015625)"/>
      <path id="DejaVuSans-Bold-6f" d="M 2203 2784 
Q 1831 2784 1636 2517 
Q 1441 2250 1441 1747 
Q 1441 1244 1636 976 
Q 1831 709 2203 709 
Q 2569 709 2762 976 
Q 2956 1244 2956 1747 
Q 2956 2250 2762 2517 
Q 2569 2784 2203 2784 
z
M 2203 3584 
Q 3106 3584 3614 3096 
Q 4122 2609 4122 1747 
Q 4122 884 3614 396 
Q 3106 -91 2203 -91 
Q 1297 -91 786 396 
Q 275 884 275 1747 
Q 275 2609 786 3096 
Q 1297 3584 2203 3584 
z
" transform="scale(0.015625)"/>
      <path id="DejaVuSans-Bold-6e" d="M 4056 2131 
L 4056 0 
L 2931 0 
L 2931 347 
L 2931 1631 
Q 2931 2084 2911 2256 
Q 2891 2428 2841 2509 
Q 2775 2619 2662 2680 
Q 2550 2741 2406 2741 
Q 2056 2741 1856 2470 
Q 1656 2200 1656 1722 
L 1656 0 
L 538 0 
L 538 3500 
L 1656 3500 
L 1656 2988 
Q 1909 3294 2193 3439 
Q 2478 3584 2822 3584 
Q 3428 3584 3742 3212 
Q 4056 2841 4056 2131 
z
" transform="scale(0.015625)"/>
      <path id="DejaVuSans-Bold-20" transform="scale(0.015625)"/>
      <path id="DejaVuSans-Bold-45" d="M 588 4666 
L 3834 4666 
L 3834 3756 
L 1791 3756 
L 1791 2888 
L 3713 2888 
L 3713 1978 
L 1791 1978 
L 1791 909 
L 3903 909 
L 3903 0 
L 588 0 
L 588 4666 
z
" transform="scale(0.015625)"/>
      <path id="DejaVuSans-Bold-67" d="M 2919 594 
Q 2688 288 2409 144 
Q 2131 0 1766 0 
Q 1125 0 706 504 
Q 288 1009 288 1791 
Q 288 2575 706 3076 
Q 1125 3578 1766 3578 
Q 2131 3578 2409 3434 
Q 2688 3291 2919 2981 
L 2919 3500 
L 4044 3500 
L 4044 353 
Q 4044 -491 3511 -936 
Q 2978 -1381 1966 -1381 
Q 1638 -1381 1331 -1331 
Q 1025 -1281 716 -1178 
L 716 -306 
Q 1009 -475 1290 -558 
Q 1572 -641 1856 -641 
Q 2406 -641 2662 -400 
Q 2919 -159 2919 353 
L 2919 594 
z
M 2181 2772 
Q 1834 2772 1640 2515 
Q 1447 2259 1447 1791 
Q 1447 1309 1634 1061 
Q 1822 813 2181 813 
Q 2531 813 2725 1069 
Q 2919 1325 2919 1791 
Q 2919 2259 2725 2515 
Q 2531 2772 2181 2772 
z
" transform="scale(0.015625)"/>
      <path id="DejaVuSans-Bold-72" d="M 3138 2547 
Q 2991 2616 2845 2648 
Q 2700 2681 2553 2681 
Q 2122 2681 1889 2404 
Q 1656 2128 1656 1613 
L 1656 0 
L 538 0 
L 538 3500 
L 1656 3500 
L 1656 2925 
Q 1872 3269 2151 3426 
Q 2431 3584 2822 3584 
Q 2878 3584 2943 3579 
Q 3009 3575 3134 3559 
L 3138 2547 
z
" transform="scale(0.015625)"/>
      <path id="DejaVuSans-Bold-4f" d="M 2719 3878 
Q 2169 3878 1866 3472 
Q 1563 3066 1563 2328 
Q 1563 1594 1866 1187 
Q 2169 781 2719 781 
Q 3272 781 3575 1187 
Q 3878 1594 3878 2328 
Q 3878 3066 3575 3472 
Q 3272 3878 2719 3878 
z
M 2719 4750 
Q 3844 4750 4481 4106 
Q 5119 3463 5119 2328 
Q 5119 1197 4481 553 
Q 3844 -91 2719 -91 
Q 1597 -91 958 553 
Q 319 1197 319 2328 
Q 319 3463 958 4106 
Q 1597 4750 2719 4750 
z
" transform="scale(0.015625)"/>
      <path id="DejaVuSans-Bold-70" d="M 1656 506 
L 1656 -1331 
L 538 -1331 
L 538 3500 
L 1656 3500 
L 1656 2988 
Q 1888 3294 2169 3439 
Q 2450 3584 2816 3584 
Q 3463 3584 3878 3070 
Q 4294 2556 4294 1747 
Q 4294 938 3878 423 
Q 3463 -91 2816 -91 
Q 2450 -91 2169 54 
Q 1888 200 1656 506 
z
M 2400 2772 
Q 2041 2772 1848 2508 
Q 1656 2244 1656 1747 
Q 1656 1250 1848 986 
Q 2041 722 2400 722 
Q 2759 722 2948 984 
Q 3138 1247 3138 1747 
Q 3138 2247 2948 2509 
Q 2759 2772 2400 2772 
z
" transform="scale(0.015625)"/>
      <path id="DejaVuSans-Bold-61" d="M 2106 1575 
Q 1756 1575 1579 1456 
Q 1403 1338 1403 1106 
Q 1403 894 1545 773 
Q 1688 653 1941 653 
Q 2256 653 2472 879 
Q 2688 1106 2688 1447 
L 2688 1575 
L 2106 1575 
z
M 3816 1997 
L 3816 0 
L 2688 0 
L 2688 519 
Q 2463 200 2181 54 
Q 1900 -91 1497 -91 
Q 953 -91 614 226 
Q 275 544 275 1050 
Q 275 1666 698 1953 
Q 1122 2241 2028 2241 
L 2688 2241 
L 2688 2328 
Q 2688 2594 2478 2717 
Q 2269 2841 1825 2841 
Q 1466 2841 1156 2769 
Q 847 2697 581 2553 
L 581 3406 
Q 941 3494 1303 3539 
Q 1666 3584 2028 3584 
Q 2975 3584 3395 3211 
Q 3816 2838 3816 1997 
z
" transform="scale(0.015625)"/>
      <path id="DejaVuSans-Bold-4d" d="M 588 4666 
L 2119 4666 
L 3181 2169 
L 4250 4666 
L 5778 4666 
L 5778 0 
L 4641 0 
L 4641 3413 
L 3566 897 
L 2803 897 
L 1728 3413 
L 1728 0 
L 588 0 
L 588 4666 
z
" transform="scale(0.015625)"/>
      <path id="DejaVuSans-Bold-64" d="M 2919 2988 
L 2919 4863 
L 4044 4863 
L 4044 0 
L 2919 0 
L 2919 506 
Q 2688 197 2409 53 
Q 2131 -91 1766 -91 
Q 1119 -91 703 423 
Q 288 938 288 1747 
Q 288 2556 703 3070 
Q 1119 3584 1766 3584 
Q 2128 3584 2408 3439 
Q 2688 3294 2919 2988 
z
M 2181 722 
Q 2541 722 2730 984 
Q 2919 1247 2919 1747 
Q 2919 2247 2730 2509 
Q 2541 2772 2181 2772 
Q 1825 2772 1636 2509 
Q 1447 2247 1447 1747 
Q 1447 1247 1636 984 
Q 1825 722 2181 722 
z
" transform="scale(0.015625)"/>
      <path id="DejaVuSans-Bold-6c" d="M 538 4863 
L 1656 4863 
L 1656 0 
L 538 0 
L 538 4863 
z
" transform="scale(0.015625)"/>
     </defs>
     <use xlink:href="#DejaVuSans-Bold-44"/>
     <use xlink:href="#DejaVuSans-Bold-65" transform="translate(83.007812 0)"/>
     <use xlink:href="#DejaVuSans-Bold-74" transform="translate(150.830078 0)"/>
     <use xlink:href="#DejaVuSans-Bold-65" transform="translate(198.632812 0)"/>
     <use xlink:href="#DejaVuSans-Bold-63" transform="translate(266.455078 0)"/>
     <use xlink:href="#DejaVuSans-Bold-74" transform="translate(325.732422 0)"/>
     <use xlink:href="#DejaVuSans-Bold-69" transform="translate(373.535156 0)"/>
     <use xlink:href="#DejaVuSans-Bold-6f" transform="translate(407.8125 0)"/>
     <use xlink:href="#DejaVuSans-Bold-6e" transform="translate(476.513672 0)"/>
     <use xlink:href="#DejaVuSans-Bold-20" transform="translate(547.705078 0)"/>
     <use xlink:href="#DejaVuSans-Bold-45" transform="translate(582.519531 0)"/>
     <use xlink:href="#DejaVuSans-Bold-6e" transform="translate(650.830078 0)"/>
     <use xlink:href="#DejaVuSans-Bold-67" transform="translate(722.021484 0)"/>
     <use xlink:href="#DejaVuSans-Bold-69" transform="translate(793.603516 0)"/>
     <use xlink:href="#DejaVuSans-Bold-6e" transform="translate(827.880859 0)"/>
     <use xlink:href="#DejaVuSans-Bold-65" transform="translate(899.072266 0)"/>
     <use xlink:href="#DejaVuSans-Bold-65" transform="translate(966.894531 0)"/>
     <use xlink:href="#DejaVuSans-Bold-72" transform="translate(1034.716797 0)"/>
     <use xlink:href="#DejaVuSans-Bold-69" transform="translate(1084.033203 0)"/>
     <use xlink:href="#DejaVuSans-Bold-6e" transform="translate(1118.310547 0)"/>
     <use xlink:href="#DejaVuSans-Bold-67" transform="translate(1189.501953 0)"/>
     <use xlink:href="#DejaVuSans-Bold-20" transform="translate(1261.083984 0)"/>
     <use xlink:href="#DejaVuSans-Bold-4f" transform="translate(1295.898438 0)"/>
     <use xlink:href="#DejaVuSans-Bold-70" transform="translate(1380.908203 0)"/>
     <use xlink:href="#DejaVuSans-Bold-65" transform="translate(1452.490234 0)"/>
     <use xlink:href="#DejaVuSans-Bold-72" transform="translate(1520.3125 0)"/>
     <use xlink:href="#DejaVuSans-Bold-61" transform="translate(1569.628906 0)"/>
     <use xlink:href="#DejaVuSans-Bold-74" transform="translate(1637.109375 0)"/>
     <use xlink:href="#DejaVuSans-Bold-69" transform="translate(1684.912109 0)"/>
     <use xlink:href="#DejaVuSans-Bold-6e" transform="translate(1719.189453 0)"/>
     <use xlink:href="#DejaVuSans-Bold-67" transform="translate(1790.380859 0)"/>
     <use xlink:href="#DejaVuSans-Bold-20" transform="translate(1861.962891 0)"/>
     <use xlink:href="#DejaVuSans-Bold-4d" transform="translate(1896.777344 0)"/>
     <use xlink:href="#DejaVuSans-Bold-6f" transform="translate(1996.289062 0)"/>
     <use xlink:href="#DejaVuSans-Bold-64" transform="translate(2064.990234 0)"/>
     <use xlink:href="#DejaVuSans-Bold-65" transform="translate(2136.572266 0)"/>
     <use xlink:href="#DejaVuSans-Bold-6c" transform="translate(2204.394531 0)"/>
    </g>
   </g>
   <g id="text_2">
    <!-- Strategy -->
    <g transform="translate(84.073359 101.096516) scale(0.11 -0.11)">
     <defs>
      <path id="DejaVuSans-53" d="M 3425 4513 
L 3425 3897 
Q 3066 4069 2747 4153 
Q 2428 4238 2131 4238 
Q 1616 4238 1336 4038 
Q 1056 3838 1056 3469 
Q 1056 3159 1242 3001 
Q 1428 2844 1947 2747 
L 2328 2669 
Q 3034 2534 3370 2195 
Q 3706 1856 3706 1288 
Q 3706 609 3251 259 
Q 2797 -91 1919 -91 
Q 1588 -91 1214 -16 
Q 841 59 441 206 
L 441 856 
Q 825 641 1194 531 
Q 1563 422 1919 422 
Q 2459 422 2753 634 
Q 3047 847 3047 1241 
Q 3047 1584 2836 1778 
Q 2625 1972 2144 2069 
L 1759 2144 
Q 1053 2284 737 2584 
Q 422 2884 422 3419 
Q 422 4038 858 4394 
Q 1294 4750 2059 4750 
Q 2388 4750 2728 4690 
Q 3069 4631 3425 4513 
z
" transform="scale(0.015625)"/>
      <path id="DejaVuSans-74" d="M 1172 4494 
L 1172 3500 
L 2356 3500 
L 2356 3053 
L 1172 3053 
L 1172 1153 
Q 1172 725 1289 603 
Q 1406 481 1766 481 
L 2356 481 
L 2356 0 
L 1766 0 
Q 1100 0 847 248 
Q 594 497 594 1153 
L 594 3053 
L 172 3053 
L 172 3500 
L 594 3500 
L 594 4494 
L 1172 4494 
z
" transform="scale(0.015625)"/>
      <path id="DejaVuSans-72" d="M 2631 2963 
Q 2534 3019 2420 3045 
Q 2306 3072 2169 3072 
Q 1681 3072 1420 2755 
Q 1159 2438 1159 1844 
L 1159 0 
L 581 0 
L 581 3500 
L 1159 3500 
L 1159 2956 
Q 1341 3275 1631 3429 
Q 1922 3584 2338 3584 
Q 2397 3584 2469 3576 
Q 2541 3569 2628 3553 
L 2631 2963 
z
" transform="scale(0.015625)"/>
      <path id="DejaVuSans-61" d="M 2194 1759 
Q 1497 1759 1228 1600 
Q 959 1441 959 1056 
Q 959 750 1161 570 
Q 1363 391 1709 391 
Q 2188 391 2477 730 
Q 2766 1069 2766 1631 
L 2766 1759 
L 2194 1759 
z
M 3341 1997 
L 3341 0 
L 2766 0 
L 2766 531 
Q 2569 213 2275 61 
Q 1981 -91 1556 -91 
Q 1019 -91 701 211 
Q 384 513 384 1019 
Q 384 1609 779 1909 
Q 1175 2209 1959 2209 
L 2766 2209 
L 2766 2266 
Q 2766 2663 2505 2880 
Q 2244 3097 1772 3097 
Q 1472 3097 1187 3025 
Q 903 2953 641 2809 
L 641 3341 
Q 956 3463 1253 3523 
Q 1550 3584 1831 3584 
Q 2591 3584 2966 3190 
Q 3341 2797 3341 1997 
z
" transform="scale(0.015625)"/>
      <path id="DejaVuSans-65" d="M 3597 1894 
L 3597 1613 
L 953 1613 
Q 991 1019 1311 708 
Q 1631 397 2203 397 
Q 2534 397 2845 478 
Q 3156 559 3463 722 
L 3463 178 
Q 3153 47 2828 -22 
Q 2503 -91 2169 -91 
Q 1331 -91 842 396 
Q 353 884 353 1716 
Q 353 2575 817 3079 
Q 1281 3584 2069 3584 
Q 2775 3584 3186 3129 
Q 3597 2675 3597 1894 
z
M 3022 2063 
Q 3016 2534 2758 2815 
Q 2500 3097 2075 3097 
Q 1594 3097 1305 2825 
Q 1016 2553 972 2059 
L 3022 2063 
z
" transform="scale(0.015625)"/>
      <path id="DejaVuSans-67" d="M 2906 1791 
Q 2906 2416 2648 2759 
Q 2391 3103 1925 3103 
Q 1463 3103 1205 2759 
Q 947 2416 947 1791 
Q 947 1169 1205 825 
Q 1463 481 1925 481 
Q 2391 481 2648 825 
Q 2906 1169 2906 1791 
z
M 3481 434 
Q 3481 -459 3084 -895 
Q 2688 -1331 1869 -1331 
Q 1566 -1331 1297 -1286 
Q 1028 -1241 775 -1147 
L 775 -588 
Q 1028 -725 1275 -790 
Q 1522 -856 1778 -856 
Q 2344 -856 2625 -561 
Q 2906 -266 2906 331 
L 2906 616 
Q 2728 306 2450 153 
Q 2172 0 1784 0 
Q 1141 0 747 490 
Q 353 981 353 1791 
Q 353 2603 747 3093 
Q 1141 3584 1784 3584 
Q 2172 3584 2450 3431 
Q 2728 3278 2906 2969 
L 2906 3500 
L 3481 3500 
L 3481 434 
z
" transform="scale(0.015625)"/>
      <path id="DejaVuSans-79" d="M 2059 -325 
Q 1816 -950 1584 -1140 
Q 1353 -1331 966 -1331 
L 506 -1331 
L 506 -850 
L 844 -850 
Q 1081 -850 1212 -737 
Q 1344 -625 1503 -206 
L 1606 56 
L 191 3500 
L 800 3500 
L 1894 763 
L 2988 3500 
L 3597 3500 
L 2059 -325 
z
" transform="scale(0.015625)"/>
     </defs>
     <use xlink:href="#DejaVuSans-53"/>
     <use xlink:href="#DejaVuSans-74" transform="translate(63.476562 0)"/>
     <use xlink:href="#DejaVuSans-72" transform="translate(102.685547 0)"/>
     <use xlink:href="#DejaVuSans-61" transform="translate(143.798828 0)"/>
     <use xlink:href="#DejaVuSans-74" transform="translate(205.078125 0)"/>
     <use xlink:href="#DejaVuSans-65" transform="translate(244.287109 0)"/>
     <use xlink:href="#DejaVuSans-67" transform="translate(305.810547 0)"/>
     <use xlink:href="#DejaVuSans-79" transform="translate(369.287109 0)"/>
    </g>
    <!-- Mission • Scope • Roadmap -->
    <g transform="translate(30.999219 113.414109) scale(0.11 -0.11)">
     <defs>
      <path id="DejaVuSans-4d" d="M 628 4666 
L 1569 4666 
L 2759 1491 
L 3956 4666 
L 4897 4666 
L 4897 0 
L 4281 0 
L 4281 4097 
L 3078 897 
L 2444 897 
L 1241 4097 
L 1241 0 
L 628 0 
L 628 4666 
z
" transform="scale(0.015625)"/>
      <path id="DejaVuSans-69" d="M 603 3500 
L 1178 3500 
L 1178 0 
L 603 0 
L 603 3500 
z
M 603 4863 
L 1178 4863 
L 1178 4134 
L 603 4134 
L 603 4863 
z
" transform="scale(0.015625)"/>
      <path id="DejaVuSans-73" d="M 2834 3397 
L 2834 2853 
Q 2591 2978 2328 3040 
Q 2066 3103 1784 3103 
Q 1356 3103 1142 2972 
Q 928 2841 928 2578 
Q 928 2378 1081 2264 
Q 1234 2150 1697 2047 
L 1894 2003 
Q 2506 1872 2764 1633 
Q 3022 1394 3022 966 
Q 3022 478 2636 193 
Q 2250 -91 1575 -91 
Q 1294 -91 989 -36 
Q 684 19 347 128 
L 347 722 
Q 666 556 975 473 
Q 1284 391 1588 391 
Q 1994 391 2212 530 
Q 2431 669 2431 922 
Q 2431 1156 2273 1281 
Q 2116 1406 1581 1522 
L 1381 1569 
Q 847 1681 609 1914 
Q 372 2147 372 2553 
Q 372 3047 722 3315 
Q 1072 3584 1716 3584 
Q 2034 3584 2315 3537 
Q 2597 3491 2834 3397 
z
" transform="scale(0.015625)"/>
      <path id="DejaVuSans-6f" d="M 1959 3097 
Q 1497 3097 1228 2736 
Q 959 2375 959 1747 
Q 959 1119 1226 758 
Q 1494 397 1959 397 
Q 2419 397 2687 759 
Q 2956 1122 2956 1747 
Q 2956 2369 2687 2733 
Q 2419 3097 1959 3097 
z
M 1959 3584 
Q 2709 3584 3137 3096 
Q 3566 2609 3566 1747 
Q 3566 888 3137 398 
Q 2709 -91 1959 -91 
Q 1206 -91 779 398 
Q 353 888 353 1747 
Q 353 2609 779 3096 
Q 1206 3584 1959 3584 
z
" transform="scale(0.015625)"/>
      <path id="DejaVuSans-6e" d="M 3513 2113 
L 3513 0 
L 2938 0 
L 2938 2094 
Q 2938 2591 2744 2837 
Q 2550 3084 2163 3084 
Q 1697 3084 1428 2787 
Q 1159 2491 1159 1978 
L 1159 0 
L 581 0 
L 581 3500 
L 1159 3500 
L 1159 2956 
Q 1366 3272 1645 3428 
Q 1925 3584 2291 3584 
Q 2894 3584 3203 3211 
Q 3513 2838 3513 2113 
z
" transform="scale(0.015625)"/>
      <path id="DejaVuSans-20" transform="scale(0.015625)"/>
      <path id="DejaVuSans-2022" d="M 959 2381 
Q 959 2769 1229 3036 
Q 1500 3303 1894 3303 
Q 2281 3303 2548 3036 
Q 2816 2769 2816 2381 
Q 2816 1991 2547 1722 
Q 2278 1453 1888 1453 
Q 1497 1453 1228 1722 
Q 959 1991 959 2381 
z
" transform="scale(0.015625)"/>
      <path id="DejaVuSans-63" d="M 3122 3366 
L 3122 2828 
Q 2878 2963 2633 3030 
Q 2388 3097 2138 3097 
Q 1578 3097 1268 2742 
Q 959 2388 959 1747 
Q 959 1106 1268 751 
Q 1578 397 2138 397 
Q 2388 397 2633 464 
Q 2878 531 3122 666 
L 3122 134 
Q 2881 22 2623 -34 
Q 2366 -91 2075 -91 
Q 1284 -91 818 406 
Q 353 903 353 1747 
Q 353 2603 823 3093 
Q 1294 3584 2113 3584 
Q 2378 3584 2631 3529 
Q 2884 3475 3122 3366 
z
" transform="scale(0.015625)"/>
      <path id="DejaVuSans-70" d="M 1159 525 
L 1159 -1331 
L 581 -1331 
L 581 3500 
L 1159 3500 
L 1159 2969 
Q 1341 3281 1617 3432 
Q 1894 3584 2278 3584 
Q 2916 3584 3314 3078 
Q 3713 2572 3713 1747 
Q 3713 922 3314 415 
Q 2916 -91 2278 -91 
Q 1894 -91 1617 61 
Q 1341 213 1159 525 
z
M 3116 1747 
Q 3116 2381 2855 2742 
Q 2594 3103 2138 3103 
Q 1681 3103 1420 2742 
Q 1159 2381 1159 1747 
Q 1159 1113 1420 752 
Q 1681 391 2138 391 
Q 2594 391 2855 752 
Q 3116 1113 3116 1747 
z
" transform="scale(0.015625)"/>
      <path id="DejaVuSans-52" d="M 2841 2188 
Q 3044 2119 3236 1894 
Q 3428 1669 3622 1275 
L 4263 0 
L 3584 0 
L 2988 1197 
Q 2756 1666 2539 1819 
Q 2322 1972 1947 1972 
L 1259 1972 
L 1259 0 
L 628 0 
L 628 4666 
L 2053 4666 
Q 2853 4666 3247 4331 
Q 3641 3997 3641 3322 
Q 3641 2881 3436 2590 
Q 3231 2300 2841 2188 
z
M 1259 4147 
L 1259 2491 
L 2053 2491 
Q 2509 2491 2742 2702 
Q 2975 2913 2975 3322 
Q 2975 3731 2742 3939 
Q 2509 4147 2053 4147 
L 1259 4147 
z
" transform="scale(0.015625)"/>
      <path id="DejaVuSans-64" d="M 2906 2969 
L 2906 4863 
L 3481 4863 
L 3481 0 
L 2906 0 
L 2906 525 
Q 2725 213 2448 61 
Q 2172 -91 1784 -91 
Q 1150 -91 751 415 
Q 353 922 353 1747 
Q 353 2572 751 3078 
Q 1150 3584 1784 3584 
Q 2172 3584 2448 3432 
Q 2725 3281 2906 2969 
z
M 947 1747 
Q 947 1113 1208 752 
Q 1469 391 1925 391 
Q 2381 391 2643 752 
Q 2906 1113 2906 1747 
Q 2906 2381 2643 2742 
Q 2381 3103 1925 3103 
Q 1469 3103 1208 2742 
Q 947 2381 947 1747 
z
" transform="scale(0.015625)"/>
      <path id="DejaVuSans-6d" d="M 3328 2828 
Q 3544 3216 3844 3400 
Q 4144 3584 4550 3584 
Q 5097 3584 5394 3201 
Q 5691 2819 5691 2113 
L 5691 0 
L 5113 0 
L 5113 2094 
Q 5113 2597 4934 2840 
Q 4756 3084 4391 3084 
Q 3944 3084 3684 2787 
Q 3425 2491 3425 1978 
L 3425 0 
L 2847 0 
L 2847 2094 
Q 2847 2600 2669 2842 
Q 2491 3084 2119 3084 
Q 1678 3084 1418 2786 
Q 1159 2488 1159 1978 
L 1159 0 
L 581 0 
L 581 3500 
L 1159 3500 
L 1159 2956 
Q 1356 3278 1631 3431 
Q 1906 3584 2284 3584 
Q 2666 3584 2933 3390 
Q 3200 3197 3328 2828 
z
" transform="scale(0.015625)"/>
     </defs>
     <use xlink:href="#DejaVuSans-4d"/>
     <use xlink:href="#DejaVuSans-69" transform="translate(86.279297 0)"/>
     <use xlink:href="#DejaVuSans-73" transform="translate(114.0625 0)"/>
     <use xlink:href="#DejaVuSans-73" transform="translate(166.162109 0)"/>
     <use xlink:href="#DejaVuSans-69" transform="translate(218.261719 0)"/>
     <use xlink:href="#DejaVuSans-6f" transform="translate(246.044922 0)"/>
     <use xlink:href="#DejaVuSans-6e" transform="translate(307.226562 0)"/>
     <use xlink:href="#DejaVuSans-20" transform="translate(370.605469 0)"/>
     <use xlink:href="#DejaVuSans-2022" transform="translate(402.392578 0)"/>
     <use xlink:href="#DejaVuSans-20" transform="translate(461.376953 0)"/>
     <use xlink:href="#DejaVuSans-53" transform="translate(493.164062 0)"/>
     <use xlink:href="#DejaVuSans-63" transform="translate(556.640625 0)"/>
     <use xlink:href="#DejaVuSans-6f" transform="translate(611.621094 0)"/>
     <use xlink:href="#DejaVuSans-70" transform="translate(672.802734 0)"/>
     <use xlink:href="#DejaVuSans-65" transform="translate(736.279297 0)"/>
     <use xlink:href="#DejaVuSans-20" transform="translate(797.802734 0)"/>
     <use xlink:href="#DejaVuSans-2022" transform="translate(829.589844 0)"/>
     <use xlink:href="#DejaVuSans-20" transform="translate(888.574219 0)"/>
     <use xlink:href="#DejaVuSans-52" transform="translate(920.361328 0)"/>
     <use xlink:href="#DejaVuSans-6f" transform="translate(985.34375 0)"/>
     <use xlink:href="#DejaVuSans-61" transform="translate(1046.525391 0)"/>
     <use xlink:href="#DejaVuSans-64" transform="translate(1107.804688 0)"/>
     <use xlink:href="#DejaVuSans-6d" transform="translate(1171.28125 0)"/>
     <use xlink:href="#DejaVuSans-61" transform="translate(1268.693359 0)"/>
     <use xlink:href="#DejaVuSans-70" transform="translate(1329.972656 0)"/>
    </g>
   </g>
   <g id="text_3">
    <!-- Governance -->
    <g transform="translate(235.162672 101.096516) scale(0.11 -0.11)">
     <defs>
      <path id="DejaVuSans-47" d="M 3809 666 
L 3809 1919 
L 2778 1919 
L 2778 2438 
L 4434 2438 
L 4434 434 
Q 4069 175 3628 42 
Q 3188 -91 2688 -91 
Q 1594 -91 976 548 
Q 359 1188 359 2328 
Q 359 3472 976 4111 
Q 1594 4750 2688 4750 
Q 3144 4750 3555 4637 
Q 3966 4525 4313 4306 
L 4313 3634 
Q 3963 3931 3569 4081 
Q 3175 4231 2741 4231 
Q 1884 4231 1454 3753 
Q 1025 3275 1025 2328 
Q 1025 1384 1454 906 
Q 1884 428 2741 428 
Q 3075 428 3337 486 
Q 3600 544 3809 666 
z
" transform="scale(0.015625)"/>
      <path id="DejaVuSans-76" d="M 191 3500 
L 800 3500 
L 1894 563 
L 2988 3500 
L 3597 3500 
L 2284 0 
L 1503 0 
L 191 3500 
z
" transform="scale(0.015625)"/>
     </defs>
     <use xlink:href="#DejaVuSans-47"/>
     <use xlink:href="#DejaVuSans-6f" transform="translate(77.490234 0)"/>
     <use xlink:href="#DejaVuSans-76" transform="translate(138.671875 0)"/>
     <use xlink:href="#DejaVuSans-65" transform="translate(197.851562 0)"/>
     <use xlink:href="#DejaVuSans-72" transform="translate(259.375 0)"/>
     <use xlink:href="#DejaVuSans-6e" transform="translate(298.738281 0)"/>
     <use xlink:href="#DejaVuSans-61" transform="translate(362.117188 0)"/>
     <use xlink:href="#DejaVuSans-6e" transform="translate(423.396484 0)"/>
     <use xlink:href="#DejaVuSans-63" transform="translate(486.775391 0)"/>
     <use xlink:href="#DejaVuSans-65" transform="translate(541.755859 0)"/>
    </g>
    <!-- Naming • Lifecycle • Quality -->
    <g transform="translate(189.734391 113.414109) scale(0.11 -0.11)">
     <defs>
      <path id="DejaVuSans-4e" d="M 628 4666 
L 1478 4666 
L 3547 763 
L 3547 4666 
L 4159 4666 
L 4159 0 
L 3309 0 
L 1241 3903 
L 1241 0 
L 628 0 
L 628 4666 
z
" transform="scale(0.015625)"/>
      <path id="DejaVuSans-4c" d="M 628 4666 
L 1259 4666 
L 1259 531 
L 3531 531 
L 3531 0 
L 628 0 
L 628 4666 
z
" transform="scale(0.015625)"/>
      <path id="DejaVuSans-66" d="M 2375 4863 
L 2375 4384 
L 1825 4384 
Q 1516 4384 1395 4259 
Q 1275 4134 1275 3809 
L 1275 3500 
L 2222 3500 
L 2222 3053 
L 1275 3053 
L 1275 0 
L 697 0 
L 697 3053 
L 147 3053 
L 147 3500 
L 697 3500 
L 697 3744 
Q 697 4328 969 4595 
Q 1241 4863 1831 4863 
L 2375 4863 
z
" transform="scale(0.015625)"/>
      <path id="DejaVuSans-6c" d="M 603 4863 
L 1178 4863 
L 1178 0 
L 603 0 
L 603 4863 
z
" transform="scale(0.015625)"/>
      <path id="DejaVuSans-51" d="M 2522 4238 
Q 1834 4238 1429 3725 
Q 1025 3213 1025 2328 
Q 1025 1447 1429 934 
Q 1834 422 2522 422 
Q 3209 422 3611 934 
Q 4013 1447 4013 2328 
Q 4013 3213 3611 3725 
Q 3209 4238 2522 4238 
z
M 3406 84 
L 4238 -825 
L 3475 -825 
L 2784 -78 
Q 2681 -84 2626 -87 
Q 2572 -91 2522 -91 
Q 1538 -91 948 567 
Q 359 1225 359 2328 
Q 359 3434 948 4092 
Q 1538 4750 2522 4750 
Q 3503 4750 4090 4092 
Q 4678 3434 4678 2328 
Q 4678 1516 4351 937 
Q 4025 359 3406 84 
z
" transform="scale(0.015625)"/>
      <path id="DejaVuSans-75" d="M 544 1381 
L 544 3500 
L 1119 3500 
L 1119 1403 
Q 1119 906 1312 657 
Q 1506 409 1894 409 
Q 2359 409 2629 706 
Q 2900 1003 2900 1516 
L 2900 3500 
L 3475 3500 
L 3475 0 
L 2900 0 
L 2900 538 
Q 2691 219 2414 64 
Q 2138 -91 1772 -91 
Q 1169 -91 856 284 
Q 544 659 544 1381 
z
M 1991 3584 
L 1991 3584 
z
" transform="scale(0.015625)"/>
     </defs>
     <use xlink:href="#DejaVuSans-4e"/>
     <use xlink:href="#DejaVuSans-61" transform="translate(74.804688 0)"/>
     <use xlink:href="#DejaVuSans-6d" transform="translate(136.083984 0)"/>
     <use xlink:href="#DejaVuSans-69" transform="translate(233.496094 0)"/>
     <use xlink:href="#DejaVuSans-6e" transform="translate(261.279297 0)"/>
     <use xlink:href="#DejaVuSans-67" transform="translate(324.658203 0)"/>
     <use xlink:href="#DejaVuSans-20" transform="translate(388.134766 0)"/>
     <use xlink:href="#DejaVuSans-2022" transform="translate(419.921875 0)"/>
     <use xlink:href="#DejaVuSans-20" transform="translate(478.90625 0)"/>
     <use xlink:href="#DejaVuSans-4c" transform="translate(510.693359 0)"/>
     <use xlink:href="#DejaVuSans-69" transform="translate(566.40625 0)"/>
     <use xlink:href="#DejaVuSans-66" transform="translate(594.189453 0)"/>
     <use xlink:href="#DejaVuSans-65" transform="translate(629.394531 0)"/>
     <use xlink:href="#DejaVuSans-63" transform="translate(690.917969 0)"/>
     <use xlink:href="#DejaVuSans-79" transform="translate(745.898438 0)"/>
     <use xlink:href="#DejaVuSans-63" transform="translate(805.078125 0)"/>
     <use xlink:href="#DejaVuSans-6c" transform="translate(860.058594 0)"/>
     <use xlink:href="#DejaVuSans-65" transform="translate(887.841797 0)"/>
     <use xlink:href="#DejaVuSans-20" transform="translate(949.365234 0)"/>
     <use xlink:href="#DejaVuSans-2022" transform="translate(981.152344 0)"/>
     <use xlink:href="#DejaVuSans-20" transform="translate(1040.136719 0)"/>
     <use xlink:href="#DejaVuSans-51" transform="translate(1071.923828 0)"/>
     <use xlink:href="#DejaVuSans-75" transform="translate(1150.634766 0)"/>
     <use xlink:href="#DejaVuSans-61" transform="translate(1214.013672 0)"/>
     <use xlink:href="#DejaVuSans-6c" transform="translate(1275.292969 0)"/>
     <use xlink:href="#DejaVuSans-69" transform="translate(1303.076172 0)"/>
     <use xlink:href="#DejaVuSans-74" transform="translate(1330.859375 0)"/>
     <use xlink:href="#DejaVuSans-79" transform="translate(1370.068359 0)"/>
    </g>
   </g>
   <g id="text_4">
    <!-- Engineering -->
    <g transform="translate(396.047141 101.096516) scale(0.11 -0.11)">
     <defs>
      <path id="DejaVuSans-45" d="M 628 4666 
L 3578 4666 
L 3578 4134 
L 1259 4134 
L 1259 2753 
L 3481 2753 
L 3481 2222 
L 1259 2222 
L 1259 531 
L 3634 531 
L 3634 0 
L 628 0 
L 628 4666 
z
" transform="scale(0.015625)"/>
     </defs>
     <use xlink:href="#DejaVuSans-45"/>
     <use xlink:href="#DejaVuSans-6e" transform="translate(63.183594 0)"/>
     <use xlink:href="#DejaVuSans-67" transform="translate(126.5625 0)"/>
     <use xlink:href="#DejaVuSans-69" transform="translate(190.039062 0)"/>
     <use xlink:href="#DejaVuSans-6e" transform="translate(217.822266 0)"/>
     <use xlink:href="#DejaVuSans-65" transform="translate(281.201172 0)"/>
     <use xlink:href="#DejaVuSans-65" transform="translate(342.724609 0)"/>
     <use xlink:href="#DejaVuSans-72" transform="translate(404.248047 0)"/>
     <use xlink:href="#DejaVuSans-69" transform="translate(445.361328 0)"/>
     <use xlink:href="#DejaVuSans-6e" transform="translate(473.144531 0)"/>
     <use xlink:href="#DejaVuSans-67" transform="translate(536.523438 0)"/>
    </g>
    <!-- Detections • Triage • Coverage -->
    <g transform="translate(343.047766 113.414109) scale(0.11 -0.11)">
     <defs>
      <path id="DejaVuSans-44" d="M 1259 4147 
L 1259 519 
L 2022 519 
Q 2988 519 3436 956 
Q 3884 1394 3884 2338 
Q 3884 3275 3436 3711 
Q 2988 4147 2022 4147 
L 1259 4147 
z
M 628 4666 
L 1925 4666 
Q 3281 4666 3915 4102 
Q 4550 3538 4550 2338 
Q 4550 1131 3912 565 
Q 3275 0 1925 0 
L 628 0 
L 628 4666 
z
" transform="scale(0.015625)"/>
      <path id="DejaVuSans-54" d="M -19 4666 
L 3928 4666 
L 3928 4134 
L 2272 4134 
L 2272 0 
L 1638 0 
L 1638 4134 
L -19 4134 
L -19 4666 
z
" transform="scale(0.015625)"/>
      <path id="DejaVuSans-43" d="M 4122 4306 
L 4122 3641 
Q 3803 3938 3442 4084 
Q 3081 4231 2675 4231 
Q 1875 4231 1450 3742 
Q 1025 3253 1025 2328 
Q 1025 1406 1450 917 
Q 1875 428 2675 428 
Q 3081 428 3442 575 
Q 3803 722 4122 1019 
L 4122 359 
Q 3791 134 3420 21 
Q 3050 -91 2638 -91 
Q 1578 -91 968 557 
Q 359 1206 359 2328 
Q 359 3453 968 4101 
Q 1578 4750 2638 4750 
Q 3056 4750 3426 4639 
Q 3797 4528 4122 4306 
z
" transform="scale(0.015625)"/>
     </defs>
     <use xlink:href="#DejaVuSans-44"/>
     <use xlink:href="#DejaVuSans-65" transform="translate(77.001953 0)"/>
     <use xlink:href="#DejaVuSans-74" transform="translate(138.525391 0)"/>
     <use xlink:href="#DejaVuSans-65" transform="translate(177.734375 0)"/>
     <use xlink:href="#DejaVuSans-63" transform="translate(239.257812 0)"/>
     <use xlink:href="#DejaVuSans-74" transform="translate(294.238281 0)"/>
     <use xlink:href="#DejaVuSans-69" transform="translate(333.447266 0)"/>
     <use xlink:href="#DejaVuSans-6f" transform="translate(361.230469 0)"/>
     <use xlink:href="#DejaVuSans-6e" transform="translate(422.412109 0)"/>
     <use xlink:href="#DejaVuSans-73" transform="translate(485.791016 0)"/>
     <use xlink:href="#DejaVuSans-20" transform="translate(537.890625 0)"/>
     <use xlink:href="#DejaVuSans-2022" transform="translate(569.677734 0)"/>
     <use xlink:href="#DejaVuSans-20" transform="translate(628.662109 0)"/>
     <use xlink:href="#DejaVuSans-54" transform="translate(660.449219 0)"/>
     <use xlink:href="#DejaVuSans-72" transform="translate(706.783203 0)"/>
     <use xlink:href="#DejaVuSans-69" transform="translate(747.896484 0)"/>
     <use xlink:href="#DejaVuSans-61" transform="translate(775.679688 0)"/>
     <use xlink:href="#DejaVuSans-67" transform="translate(836.958984 0)"/>
     <use xlink:href="#DejaVuSans-65" transform="translate(900.435547 0)"/>
     <use xlink:href="#DejaVuSans-20" transform="translate(961.958984 0)"/>
     <use xlink:href="#DejaVuSans-2022" transform="translate(993.746094 0)"/>
     <use xlink:href="#DejaVuSans-20" transform="translate(1052.730469 0)"/>
     <use xlink:href="#DejaVuSans-43" transform="translate(1084.517578 0)"/>
     <use xlink:href="#DejaVuSans-6f" transform="translate(1154.341797 0)"/>
     <use xlink:href="#DejaVuSans-76" transform="translate(1215.523438 0)"/>
     <use xlink:href="#DejaVuSans-65" transform="translate(1274.703125 0)"/>
     <use xlink:href="#DejaVuSans-72" transform="translate(1336.226562 0)"/>
     <use xlink:href="#DejaVuSans-61" transform="translate(1377.339844 0)"/>
     <use xlink:href="#DejaVuSans-67" transform="translate(1438.619141 0)"/>
     <use xlink:href="#DejaVuSans-65" transform="translate(1502.095703 0)"/>
    </g>
   </g>
   <g id="text_5">
    <!-- Reporting -->
    <g transform="translate(556.318266 101.096516) scale(0.11 -0.11)">
     <use xlink:href="#DejaVuSans-52"/>
     <use xlink:href="#DejaVuSans-65" transform="translate(64.982422 0)"/>
     <use xlink:href="#DejaVuSans-70" transform="translate(126.505859 0)"/>
     <use xlink:href="#DejaVuSans-6f" transform="translate(189.982422 0)"/>
     <use xlink:href="#DejaVuSans-72" transform="translate(251.164062 0)"/>
     <use xlink:href="#DejaVuSans-74" transform="translate(292.277344 0)"/>
     <use xlink:href="#DejaVuSans-69" transform="translate(331.486328 0)"/>
     <use xlink:href="#DejaVuSans-6e" transform="translate(359.269531 0)"/>
     <use xlink:href="#DejaVuSans-67" transform="translate(422.648438 0)"/>
    </g>
    <!-- Metrics • Reviews -->
    <g transform="translate(533.862797 113.414109) scale(0.11 -0.11)">
     <defs>
      <path id="DejaVuSans-77" d="M 269 3500 
L 844 3500 
L 1563 769 
L 2278 3500 
L 2956 3500 
L 3675 769 
L 4391 3500 
L 4966 3500 
L 4050 0 
L 3372 0 
L 2619 2869 
L 1863 0 
L 1184 0 
L 269 3500 
z
" transform="scale(0.015625)"/>
     </defs>
     <use xlink:href="#DejaVuSans-4d"/>
     <use xlink:href="#DejaVuSans-65" transform="translate(86.279297 0)"/>
     <use xlink:href="#DejaVuSans-74" transform="translate(147.802734 0)"/>
     <use xlink:href="#DejaVuSans-72" transform="translate(187.011719 0)"/>
     <use xlink:href="#DejaVuSans-69" transform="translate(228.125 0)"/>
     <use xlink:href="#DejaVuSans-63" transform="translate(255.908203 0)"/>
     <use xlink:href="#DejaVuSans-73" transform="translate(310.888672 0)"/>
     <use xlink:href="#DejaVuSans-20" transform="translate(362.988281 0)"/>
     <use xlink:href="#DejaVuSans-2022" transform="translate(394.775391 0)"/>
     <use xlink:href="#DejaVuSans-20" transform="translate(453.759766 0)"/>
     <use xlink:href="#DejaVuSans-52" transform="translate(485.546875 0)"/>
     <use xlink:href="#DejaVuSans-65" transform="translate(550.529297 0)"/>
     <use xlink:href="#DejaVuSans-76" transform="translate(612.052734 0)"/>
     <use xlink:href="#DejaVuSans-69" transform="translate(671.232422 0)"/>
     <use xlink:href="#DejaVuSans-65" transform="translate(699.015625 0)"/>
     <use xlink:href="#DejaVuSans-77" transform="translate(760.539062 0)"/>
     <use xlink:href="#DejaVuSans-73" transform="translate(842.326172 0)"/>
    </g>
   </g>
   <g id="text_6">
    <!-- Intake -->
    <g transform="translate(104.027547 215.363312) scale(0.11 -0.11)">
     <defs>
      <path id="DejaVuSans-49" d="M 628 4666 
L 1259 4666 
L 1259 0 
L 628 0 
L 628 4666 
z
" transform="scale(0.015625)"/>
      <path id="DejaVuSans-6b" d="M 581 4863 
L 1159 4863 
L 1159 1991 
L 2875 3500 
L 3609 3500 
L 1753 1863 
L 3688 0 
L 2938 0 
L 1159 1709 
L 1159 0 
L 581 0 
L 581 4863 
z
" transform="scale(0.015625)"/>
     </defs>
     <use xlink:href="#DejaVuSans-49"/>
     <use xlink:href="#DejaVuSans-6e" transform="translate(29.492188 0)"/>
     <use xlink:href="#DejaVuSans-74" transform="translate(92.871094 0)"/>
     <use xlink:href="#DejaVuSans-61" transform="translate(132.080078 0)"/>
     <use xlink:href="#DejaVuSans-6b" transform="translate(193.359375 0)"/>
     <use xlink:href="#DejaVuSans-65" transform="translate(247.644531 0)"/>
    </g>
   </g>
   <g id="text_7">
    <!-- Build -->
    <g transform="translate(247.841281 215.363312) scale(0.11 -0.11)">
     <defs>
      <path id="DejaVuSans-42" d="M 1259 2228 
L 1259 519 
L 2272 519 
Q 2781 519 3026 730 
Q 3272 941 3272 1375 
Q 3272 1813 3026 2020 
Q 2781 2228 2272 2228 
L 1259 2228 
z
M 1259 4147 
L 1259 2741 
L 2194 2741 
Q 2656 2741 2882 2914 
Q 3109 3088 3109 3444 
Q 3109 3797 2882 3972 
Q 2656 4147 2194 4147 
L 1259 4147 
z
M 628 4666 
L 2241 4666 
Q 2963 4666 3353 4366 
Q 3744 4066 3744 3513 
Q 3744 3084 3544 2831 
Q 3344 2578 2956 2516 
Q 3422 2416 3680 2098 
Q 3938 1781 3938 1306 
Q 3938 681 3513 340 
Q 3088 0 2303 0 
L 628 0 
L 628 4666 
z
" transform="scale(0.015625)"/>
     </defs>
     <use xlink:href="#DejaVuSans-42"/>
     <use xlink:href="#DejaVuSans-75" transform="translate(68.603516 0)"/>
     <use xlink:href="#DejaVuSans-69" transform="translate(131.982422 0)"/>
     <use xlink:href="#DejaVuSans-6c" transform="translate(159.765625 0)"/>
     <use xlink:href="#DejaVuSans-64" transform="translate(187.548828 0)"/>
    </g>
   </g>
   <g id="text_8">
    <!-- Validate -->
    <g transform="translate(380.099 215.363312) scale(0.11 -0.11)">
     <defs>
      <path id="DejaVuSans-56" d="M 1831 0 
L 50 4666 
L 709 4666 
L 2188 738 
L 3669 4666 
L 4325 4666 
L 2547 0 
L 1831 0 
z
" transform="scale(0.015625)"/>
     </defs>
     <use xlink:href="#DejaVuSans-56"/>
     <use xlink:href="#DejaVuSans-61" transform="translate(60.658203 0)"/>
     <use xlink:href="#DejaVuSans-6c" transform="translate(121.9375 0)"/>
     <use xlink:href="#DejaVuSans-69" transform="translate(149.720703 0)"/>
     <use xlink:href="#DejaVuSans-64" transform="translate(177.503906 0)"/>
     <use xlink:href="#DejaVuSans-61" transform="translate(240.980469 0)"/>
     <use xlink:href="#DejaVuSans-74" transform="translate(302.259766 0)"/>
     <use xlink:href="#DejaVuSans-65" transform="translate(341.46875 0)"/>
    </g>
   </g>
   <g id="text_9">
    <!-- Promote -->
    <g transform="translate(519.894297 215.363312) scale(0.11 -0.11)">
     <defs>
      <path id="DejaVuSans-50" d="M 1259 4147 
L 1259 2394 
L 2053 2394 
Q 2494 2394 2734 2622 
Q 2975 2850 2975 3272 
Q 2975 3691 2734 3919 
Q 2494 4147 2053 4147 
L 1259 4147 
z
M 628 4666 
L 2053 4666 
Q 2838 4666 3239 4311 
Q 3641 3956 3641 3272 
Q 3641 2581 3239 2228 
Q 2838 1875 2053 1875 
L 1259 1875 
L 1259 0 
L 628 0 
L 628 4666 
z
" transform="scale(0.015625)"/>
     </defs>
     <use xlink:href="#DejaVuSans-50"/>
     <use xlink:href="#DejaVuSans-72" transform="translate(58.552734 0)"/>
     <use xlink:href="#DejaVuSans-6f" transform="translate(97.416016 0)"/>
     <use xlink:href="#DejaVuSans-6d" transform="translate(158.597656 0)"/>
     <use xlink:href="#DejaVuSans-6f" transform="translate(256.009766 0)"/>
     <use xlink:href="#DejaVuSans-74" transform="translate(317.191406 0)"/>
     <use xlink:href="#DejaVuSans-65" transform="translate(356.400391 0)"/>
    </g>
   </g>
   <g id="text_10">
    <!-- SOC Feedback -->
    <g transform="translate(175.174281 317.927312) scale(0.11 -0.11)">
     <defs>
      <path id="DejaVuSans-4f" d="M 2522 4238 
Q 1834 4238 1429 3725 
Q 1025 3213 1025 2328 
Q 1025 1447 1429 934 
Q 1834 422 2522 422 
Q 3209 422 3611 934 
Q 4013 1447 4013 2328 
Q 4013 3213 3611 3725 
Q 3209 4238 2522 4238 
z
M 2522 4750 
Q 3503 4750 4090 4092 
Q 4678 3434 4678 2328 
Q 4678 1225 4090 567 
Q 3503 -91 2522 -91 
Q 1538 -91 948 565 
Q 359 1222 359 2328 
Q 359 3434 948 4092 
Q 1538 4750 2522 4750 
z
" transform="scale(0.015625)"/>
      <path id="DejaVuSans-46" d="M 628 4666 
L 3309 4666 
L 3309 4134 
L 1259 4134 
L 1259 2759 
L 3109 2759 
L 3109 2228 
L 1259 2228 
L 1259 0 
L 628 0 
L 628 4666 
z
" transform="scale(0.015625)"/>
      <path id="DejaVuSans-62" d="M 3116 1747 
Q 3116 2381 2855 2742 
Q 2594 3103 2138 3103 
Q 1681 3103 1420 2742 
Q 1159 2381 1159 1747 
Q 1159 1113 1420 752 
Q 1681 391 2138 391 
Q 2594 391 2855 752 
Q 3116 1113 3116 1747 
z
M 1159 2969 
Q 1341 3281 1617 3432 
Q 1894 3584 2278 3584 
Q 2916 3584 3314 3078 
Q 3713 2572 3713 1747 
Q 3713 922 3314 415 
Q 2916 -91 2278 -91 
Q 1894 -91 1617 61 
Q 1341 213 1159 525 
L 1159 0 
L 581 0 
L 581 4863 
L 1159 4863 
L 1159 2969 
z
" transform="scale(0.015625)"/>
     </defs>
     <use xlink:href="#DejaVuSans-53"/>
     <use xlink:href="#DejaVuSans-4f" transform="translate(63.476562 0)"/>
     <use xlink:href="#DejaVuSans-43" transform="translate(142.1875 0)"/>
     <use xlink:href="#DejaVuSans-20" transform="translate(212.011719 0)"/>
     <use xlink:href="#DejaVuSans-46" transform="translate(243.798828 0)"/>
     <use xlink:href="#DejaVuSans-65" transform="translate(295.818359 0)"/>
     <use xlink:href="#DejaVuSans-65" transform="translate(357.341797 0)"/>
     <use xlink:href="#DejaVuSans-64" transform="translate(418.865234 0)"/>
     <use xlink:href="#DejaVuSans-62" transform="translate(482.341797 0)"/>
     <use xlink:href="#DejaVuSans-61" transform="translate(545.818359 0)"/>
     <use xlink:href="#DejaVuSans-63" transform="translate(607.097656 0)"/>
     <use xlink:href="#DejaVuSans-6b" transform="translate(662.078125 0)"/>
    </g>
   </g>
   <g id="text_11">
    <!-- IR / Hunt Lessons -->
    <g transform="translate(327.876641 317.927312) scale(0.11 -0.11)">
     <defs>
      <path id="DejaVuSans-2f" d="M 1625 4666 
L 2156 4666 
L 531 -594 
L 0 -594 
L 1625 4666 
z
" transform="scale(0.015625)"/>
      <path id="DejaVuSans-48" d="M 628 4666 
L 1259 4666 
L 1259 2753 
L 3553 2753 
L 3553 4666 
L 4184 4666 
L 4184 0 
L 3553 0 
L 3553 2222 
L 1259 2222 
L 1259 0 
L 628 0 
L 628 4666 
z
" transform="scale(0.015625)"/>
     </defs>
     <use xlink:href="#DejaVuSans-49"/>
     <use xlink:href="#DejaVuSans-52" transform="translate(29.492188 0)"/>
     <use xlink:href="#DejaVuSans-20" transform="translate(98.974609 0)"/>
     <use xlink:href="#DejaVuSans-2f" transform="translate(130.761719 0)"/>
     <use xlink:href="#DejaVuSans-20" transform="translate(164.453125 0)"/>
     <use xlink:href="#DejaVuSans-48" transform="translate(196.240234 0)"/>
     <use xlink:href="#DejaVuSans-75" transform="translate(271.435547 0)"/>
     <use xlink:href="#DejaVuSans-6e" transform="translate(334.814453 0)"/>
     <use xlink:href="#DejaVuSans-74" transform="translate(398.193359 0)"/>
     <use xlink:href="#DejaVuSans-20" transform="translate(437.402344 0)"/>
     <use xlink:href="#DejaVuSans-4c" transform="translate(469.189453 0)"/>
     <use xlink:href="#DejaVuSans-65" transform="translate(523.152344 0)"/>
     <use xlink:href="#DejaVuSans-73" transform="translate(584.675781 0)"/>
     <use xlink:href="#DejaVuSans-73" transform="translate(636.775391 0)"/>
     <use xlink:href="#DejaVuSans-6f" transform="translate(688.875 0)"/>
     <use xlink:href="#DejaVuSans-6e" transform="translate(750.056641 0)"/>
     <use xlink:href="#DejaVuSans-73" transform="translate(813.435547 0)"/>
    </g>
   </g>
   <g id="text_12">
    <!-- Gap Priorities -->
    <g transform="translate(492.519406 317.927312) scale(0.11 -0.11)">
     <use xlink:href="#DejaVuSans-47"/>
     <use xlink:href="#DejaVuSans-61" transform="translate(77.490234 0)"/>
     <use xlink:href="#DejaVuSans-70" transform="translate(138.769531 0)"/>
     <use xlink:href="#DejaVuSans-20" transform="translate(202.246094 0)"/>
     <use xlink:href="#DejaVuSans-50" transform="translate(234.033203 0)"/>
     <use xlink:href="#DejaVuSans-72" transform="translate(292.585938 0)"/>
     <use xlink:href="#DejaVuSans-69" transform="translate(333.699219 0)"/>
     <use xlink:href="#DejaVuSans-6f" transform="translate(361.482422 0)"/>
     <use xlink:href="#DejaVuSans-72" transform="translate(422.664062 0)"/>
     <use xlink:href="#DejaVuSans-69" transform="translate(463.777344 0)"/>
     <use xlink:href="#DejaVuSans-74" transform="translate(491.560547 0)"/>
     <use xlink:href="#DejaVuSans-69" transform="translate(530.769531 0)"/>
     <use xlink:href="#DejaVuSans-65" transform="translate(558.552734 0)"/>
     <use xlink:href="#DejaVuSans-73" transform="translate(620.076172 0)"/>
    </g>
   </g>
   <g id="text_13">
    <!-- Executive strategy + engineering workflow + continuous improvement loop -->
    <g transform="translate(132.636484 378.648) scale(0.11 -0.11)">
     <defs>
      <path id="DejaVuSans-78" d="M 3513 3500 
L 2247 1797 
L 3578 0 
L 2900 0 
L 1881 1375 
L 863 0 
L 184 0 
L 1544 1831 
L 300 3500 
L 978 3500 
L 1906 2253 
L 2834 3500 
L 3513 3500 
z
" transform="scale(0.015625)"/>
      <path id="DejaVuSans-2b" d="M 2944 4013 
L 2944 2272 
L 4684 2272 
L 4684 1741 
L 2944 1741 
L 2944 0 
L 2419 0 
L 2419 1741 
L 678 1741 
L 678 2272 
L 2419 2272 
L 2419 4013 
L 2944 4013 
z
" transform="scale(0.015625)"/>
     </defs>
     <use xlink:href="#DejaVuSans-45"/>
     <use xlink:href="#DejaVuSans-78" transform="translate(63.183594 0)"/>
     <use xlink:href="#DejaVuSans-65" transform="translate(119.238281 0)"/>
     <use xlink:href="#DejaVuSans-63" transform="translate(180.761719 0)"/>
     <use xlink:href="#DejaVuSans-75" transform="translate(235.742188 0)"/>
     <use xlink:href="#DejaVuSans-74" transform="translate(299.121094 0)"/>
     <use xlink:href="#DejaVuSans-69" transform="translate(338.330078 0)"/>
     <use xlink:href="#DejaVuSans-76" transform="translate(366.113281 0)"/>
     <use xlink:href="#DejaVuSans-65" transform="translate(425.292969 0)"/>
     <use xlink:href="#DejaVuSans-20" transform="translate(486.816406 0)"/>
     <use xlink:href="#DejaVuSans-73" transform="translate(518.603516 0)"/>
     <use xlink:href="#DejaVuSans-74" transform="translate(570.703125 0)"/>
     <use xlink:href="#DejaVuSans-72" transform="translate(609.912109 0)"/>
     <use xlink:href="#DejaVuSans-61" transform="translate(651.025391 0)"/>
     <use xlink:href="#DejaVuSans-74" transform="translate(712.304688 0)"/>
     <use xlink:href="#DejaVuSans-65" transform="translate(751.513672 0)"/>
     <use xlink:href="#DejaVuSans-67" transform="translate(813.037109 0)"/>
     <use xlink:href="#DejaVuSans-79" transform="translate(876.513672 0)"/>
     <use xlink:href="#DejaVuSans-20" transform="translate(935.693359 0)"/>
     <use xlink:href="#DejaVuSans-2b" transform="translate(967.480469 0)"/>
     <use xlink:href="#DejaVuSans-20" transform="translate(1051.269531 0)"/>
     <use xlink:href="#DejaVuSans-65" transform="translate(1083.056641 0)"/>
     <use xlink:href="#DejaVuSans-6e" transform="translate(1144.580078 0)"/>
     <use xlink:href="#DejaVuSans-67" transform="translate(1207.958984 0)"/>
     <use xlink:href="#DejaVuSans-69" transform="translate(1271.435547 0)"/>
     <use xlink:href="#DejaVuSans-6e" transform="translate(1299.21875 0)"/>
     <use xlink:href="#DejaVuSans-65" transform="translate(1362.597656 0)"/>
     <use xlink:href="#DejaVuSans-65" transform="translate(1424.121094 0)"/>
     <use xlink:href="#DejaVuSans-72" transform="translate(1485.644531 0)"/>
     <use xlink:href="#DejaVuSans-69" transform="translate(1526.757812 0)"/>
     <use xlink:href="#DejaVuSans-6e" transform="translate(1554.541016 0)"/>
     <use xlink:href="#DejaVuSans-67" transform="translate(1617.919922 0)"/>
     <use xlink:href="#DejaVuSans-20" transform="translate(1681.396484 0)"/>
     <use xlink:href="#DejaVuSans-77" transform="translate(1713.183594 0)"/>
     <use xlink:href="#DejaVuSans-6f" transform="translate(1794.970703 0)"/>
     <use xlink:href="#DejaVuSans-72" transform="translate(1856.152344 0)"/>
     <use xlink:href="#DejaVuSans-6b" transform="translate(1897.265625 0)"/>
     <use xlink:href="#DejaVuSans-66" transform="translate(1955.175781 0)"/>
     <use xlink:href="#DejaVuSans-6c" transform="translate(1990.380859 0)"/>
     <use xlink:href="#DejaVuSans-6f" transform="translate(2018.164062 0)"/>
     <use xlink:href="#DejaVuSans-77" transform="translate(2079.345703 0)"/>
     <use xlink:href="#DejaVuSans-20" transform="translate(2161.132812 0)"/>
     <use xlink:href="#DejaVuSans-2b" transform="translate(2192.919922 0)"/>
     <use xlink:href="#DejaVuSans-20" transform="translate(2276.708984 0)"/>
     <use xlink:href="#DejaVuSans-63" transform="translate(2308.496094 0)"/>
     <use xlink:href="#DejaVuSans-6f" transform="translate(2363.476562 0)"/>
     <use xlink:href="#DejaVuSans-6e" transform="translate(2424.658203 0)"/>
     <use xlink:href="#DejaVuSans-74" transform="translate(2488.037109 0)"/>
     <use xlink:href="#DejaVuSans-69" transform="translate(2527.246094 0)"/>
     <use xlink:href="#DejaVuSans-6e" transform="translate(2555.029297 0)"/>
     <use xlink:href="#DejaVuSans-75" transform="translate(2618.408203 0)"/>
     <use xlink:href="#DejaVuSans-6f" transform="translate(2681.787109 0)"/>
     <use xlink:href="#DejaVuSans-75" transform="translate(2742.96875 0)"/>
     <use xlink:href="#DejaVuSans-73" transform="translate(2806.347656 0)"/>
     <use xlink:href="#DejaVuSans-20" transform="translate(2858.447266 0)"/>
     <use xlink:href="#DejaVuSans-69" transform="translate(2890.234375 0)"/>
     <use xlink:href="#DejaVuSans-6d" transform="translate(2918.017578 0)"/>
     <use xlink:href="#DejaVuSans-70" transform="translate(3015.429688 0)"/>
     <use xlink:href="#DejaVuSans-72" transform="translate(3078.90625 0)"/>
     <use xlink:href="#DejaVuSans-6f" transform="translate(3117.769531 0)"/>
     <use xlink:href="#DejaVuSans-76" transform="translate(3178.951172 0)"/>
     <use xlink:href="#DejaVuSans-65" transform="translate(3238.130859 0)"/>
     <use xlink:href="#DejaVuSans-6d" transform="translate(3299.654297 0)"/>
     <use xlink:href="#DejaVuSans-65" transform="translate(3397.066406 0)"/>
     <use xlink:href="#DejaVuSans-6e" transform="translate(3458.589844 0)"/>
     <use xlink:href="#DejaVuSans-74" transform="translate(3521.96875 0)"/>
     <use xlink:href="#DejaVuSans-20" transform="translate(3561.177734 0)"/>
     <use xlink:href="#DejaVuSans-6c" transform="translate(3592.964844 0)"/>
     <use xlink:href="#DejaVuSans-6f" transform="translate(3620.748047 0)"/>
     <use xlink:href="#DejaVuSans-6f" transform="translate(3681.929688 0)"/>
     <use xlink:href="#DejaVuSans-70" transform="translate(3743.111328 0)"/>
    </g>
   </g>
  </g>
 </g>
 <defs>
  <clipPath id="p7eeeb2f479">
   <rect x="7.2" y="7.2" width="669.6" height="388.08"/>
  </clipPath>
 </defs>
</svg>
